<?xml version="1.0" encoding="utf-8"?>
<!-- Generator: Adobe Illustrator 23.0.1, SVG Export Plug-In . SVG Version: 6.00 Build 0)  -->
<svg version="1.1" id="Layer_1" xmlns="http://www.w3.org/2000/svg" xmlns:xlink="http://www.w3.org/1999/xlink" x="0px" y="0px"
	 viewBox="0 0 792 553.8" style="enable-background:new 0 0 792 553.8;" xml:space="preserve">
<style type="text/css">
	.st0{fill:#FFFFFF;}
</style>
<g>
	<g>
		<g>
			<path class="st0" d="M20.2,369.5v4.4c0,2.2,1.5,2.6,3.5,2.8c0.2,0,0.1,1.2-0.2,1.2h-9.9c-0.3,0-0.4-1.1-0.2-1.2
				c1.6-0.2,2.6-0.9,2.6-2.8V360c0-2.1-1.1-2.7-2.6-3.1c-0.3-0.1-0.1-1.2,0.2-1.2c1.2,0.2,2.6,0.2,3.6,0.2c2.5,0,4.5-0.2,6.1-0.2
				c5,0,9.1,1.8,9.1,6.7C32.4,368.1,27.2,370.5,20.2,369.5z M20.2,360v7.8c5.1,0.7,7.7-0.7,7.7-4.6c0-3.4-2.1-5.7-5.4-5.7
				C20.7,357.6,20.2,358.2,20.2,360z"/>
		</g>
		<g>
			<path class="st0" d="M77,378c-2.1,0.6-5,0.7-7-1.9l-4.8-6.2c-1.4-1.8-2.9-2-5-2.1v6c0,2.2,1.5,2.6,3.5,2.8c0.2,0,0.1,1.2-0.2,1.2
				h-9.9c-0.3,0-0.4-1.1-0.2-1.2c1.6-0.2,2.6-0.9,2.6-2.8V360c0-2.1-1.1-2.7-2.6-3.1c-0.3-0.1-0.1-1.2,0.2-1.2
				c1.2,0.2,2.6,0.2,3.6,0.2c2.5,0,4.8-0.2,6.3-0.2c5,0,8,2,8,5.8c0,3.5-2.9,5.4-5.7,5.5v0.1c1.4,0,2.4,0.6,3.8,2.4l4.6,5.7
				c1,1.3,2.1,1.7,2.7,1.7C77.2,377,77.1,377.9,77,378z M67.3,362.5c0-3.3-2-4.9-4.7-4.9c-1.8,0-2.3,0.7-2.3,2.5v6.2H61
				C65.7,366.3,67.3,365.5,67.3,362.5z"/>
		</g>
		<g>
			<path class="st0" d="M96.5,376.6c1.8-0.5,3.2-0.8,3.2-3.1v-13.8c0-1.9-1.3-2.4-2.6-2.8c-0.3-0.1-0.1-1.2,0.2-1.1
				c2.3,0.3,6.7,0.2,8.3,0.2c2.9,0,4.9-0.1,7.5-0.2c0.8,0,0.8,0.5,0.6,1.2l-0.8,3c-0.1,0.4-0.9,0.4-1,0c-0.5-1.6-1.4-2.4-5.3-2.4
				c-2.1,0-2.8,0.6-2.8,2.1v5.1c0,0.8,0.4,1,1,1h0.7c2.4,0,4.6-0.3,5.9-1.3c0.3-0.3,1-0.2,0.7,0.4l-1.8,4c-0.3,0.6-0.8,0.6-1.1,0.1
				c-0.7-1-2.3-1.4-4-1.4H105c-0.6,0-1,0.2-1,1v5.1c0,1.8,0.7,2.5,3.2,2.5c4.5,0,6.6-2.3,7.3-3.4c0.2-0.3,1.1-0.1,1.1,0.4
				c0,1.5-1.4,4.8-3.4,4.8c-1.9-0.1-3.5-0.2-6.1-0.2c-2.9,0-6.5-0.1-9.4,0.2C96.4,377.9,96.3,376.7,96.5,376.6z"/>
		</g>
		<g>
			<path class="st0" d="M136.8,375.8l0.3-1.2c0.9-3.5,2.1,1.5,7.3,1.5c2.5,0,3.6-1.2,3.6-3c0-1.3-0.8-1.9-3.2-3.4l-2.6-1.8
				c-3.5-2.3-5.1-3.5-5.1-6c0-4,3.9-6.6,7.8-6.6c2.4,0,5.5,1,5.1,2.1l-0.4,1.2c-1.1,3.3-1.8-1.1-6.1-1.1c-2.1,0-3.2,1-3.2,2.6
				c0,1.4,0.9,2.2,3,3.5l3,1.9c3.4,2.2,4.8,3.6,4.8,5.9c0,4-3.9,6.8-8.1,6.8C140.4,378.3,136.4,377.2,136.8,375.8z"/>
		</g>
		<g>
			<path class="st0" d="M172.4,367.3c0-5.4,3.3-11.9,12.2-11.9c3.7,0,6.8,1.1,6.4,2.2l-0.4,1.3c-1.3,3.7-2.3-0.9-8-0.9
				c-4.4,0-6.4,2.9-6.4,7.2c0,7.1,5.4,9.9,9.4,9.9c0.6,0,3.7-0.4,5-1.3c0.3-0.2,1,0.6,0.8,0.9c-1.3,2-5.6,3.6-6.7,3.6
				C179.5,378.3,172.4,375.3,172.4,367.3z"/>
		</g>
		<g>
			<path class="st0" d="M235.9,378c-2.1,0.6-5,0.7-7-1.9l-4.8-6.2c-1.4-1.8-2.9-2-5-2.1v6c0,2.2,1.5,2.6,3.5,2.8
				c0.2,0,0.1,1.2-0.2,1.2h-9.9c-0.3,0-0.4-1.1-0.2-1.2c1.6-0.2,2.6-0.9,2.6-2.8V360c0-2.1-1.1-2.7-2.6-3.1
				c-0.3-0.1-0.1-1.2,0.2-1.2c1.2,0.2,2.6,0.2,3.6,0.2c2.5,0,4.8-0.2,6.3-0.2c5,0,8,2,8,5.8c0,3.5-2.9,5.4-5.7,5.5v0.1
				c1.4,0,2.4,0.6,3.8,2.4l4.6,5.7c1,1.3,2.1,1.7,2.7,1.7C236.2,377,236.1,377.9,235.9,378z M226.2,362.5c0-3.3-2-4.9-4.7-4.9
				c-1.8,0-2.3,0.7-2.3,2.5v6.2h0.8C224.7,366.3,226.2,365.5,226.2,362.5z"/>
		</g>
		<g>
			<path class="st0" d="M256,376.7c1.6-0.2,2.6-0.9,2.6-2.8v-14c0-1.9-0.9-2.6-2.6-2.8c-0.3,0-0.1-1.2,0.2-1.2h9
				c0.3,0,0.4,1.1,0.2,1.2c-1.3,0.2-2.6,0.6-2.6,2.8v14c0,2.2,1.3,2.6,2.6,2.8c0.3,0,0.1,1.2-0.2,1.2h-9
				C255.9,377.8,255.7,376.7,256,376.7z"/>
		</g>
		<g>
			<path class="st0" d="M292.9,369.5v4.4c0,2.2,1.5,2.6,3.5,2.8c0.2,0,0.1,1.2-0.2,1.2h-9.9c-0.3,0-0.4-1.1-0.2-1.2
				c1.6-0.2,2.6-0.9,2.6-2.8V360c0-2.1-1.1-2.7-2.6-3.1c-0.3-0.1-0.1-1.2,0.2-1.2c1.2,0.2,2.6,0.2,3.6,0.2c2.5,0,4.5-0.2,6.1-0.2
				c5,0,9.1,1.8,9.1,6.7C305.2,368.1,299.9,370.5,292.9,369.5z M292.9,360v7.8c5.1,0.7,7.7-0.7,7.7-4.6c0-3.4-2.1-5.7-5.4-5.7
				C293.4,357.6,292.9,358.2,292.9,360z"/>
		</g>
		<g>
			<path class="st0" d="M330.4,376.7c2.2-0.3,3.6-0.7,3.6-2.4V359c0-0.8-0.3-1-1-1h-0.7c-2.8,0-4.7,0.8-5.2,2
				c-0.3,0.7-1.4,0.5-1.3,0c0.3-1.1,0.5-2.2,0.7-3.9c0.1-0.6,0.4-0.6,1-0.5c1.7,0.2,2.8,0.2,8.9,0.2c6.1,0,8-0.1,9.8-0.2
				c0.6-0.1,1.1-0.1,0.9,0.5c-0.5,1.5-0.8,2.8-1,3.9c-0.1,0.5-1,0.6-1.1,0c-0.3-1.2-1.8-2-4.4-2h-0.9c-0.8,0-1.2,0.2-1.2,1v15.3
				c0,1.7,1.4,2.1,3.6,2.4c0.3,0,0.1,1.1-0.2,1.1h-11.1C330.4,377.8,330.2,376.7,330.4,376.7z"/>
		</g>
		<g>
			<path class="st0" d="M367.4,376.7c1.6-0.2,2.6-0.9,2.6-2.8v-14c0-1.9-0.9-2.6-2.6-2.8c-0.3,0-0.1-1.2,0.2-1.2h9
				c0.3,0,0.4,1.1,0.2,1.2c-1.3,0.2-2.6,0.6-2.6,2.8v14c0,2.2,1.3,2.6,2.6,2.8c0.3,0,0.1,1.2-0.2,1.2h-9
				C367.3,377.8,367.1,376.7,367.4,376.7z"/>
		</g>
		<g>
			<path class="st0" d="M397.9,367c0-6.3,4.6-11.6,11.4-11.6c6.6,0,11.4,4.8,11.4,11.3c0,6.4-4.5,11.6-11.5,11.6
				C402.7,378.3,397.9,373.5,397.9,367z M416.6,368.5c0-6.2-4.2-10.9-8.5-10.9c-2.7,0-6,1.8-6,7.5c0,6.3,4.2,10.9,8.5,10.9
				C413.2,376,416.6,374.2,416.6,368.5z"/>
		</g>
		<g>
			<path class="st0" d="M461.4,377.6l-14.8-15.1v11.3c0,2.2,1.3,2.5,3.2,3c0.3,0.1,0.1,1.2-0.2,1.2h-7.8c-0.3,0-0.4-1-0.2-1.2
				c1.2-0.5,2.5-0.6,2.5-3v-11.9c0-2.4-0.4-3.3-1.1-4.4c-0.3-0.5-0.6-0.8-0.6-0.8c0-0.3,0.2-0.7,0.7-0.7h2.4c0.3,0,0.5,0,0.8,0.3
				l14.5,14.9v-11.2c0-2.2-1.4-2.4-3.2-2.9c-0.3-0.1-0.1-1.2,0.2-1.2h7.8c0.3,0,0.4,1.1,0.2,1.2c-1.4,0.4-2.6,0.7-2.6,2.9v12
				c0,2.2,0.1,4.5,0.4,5.7c0.1,0.5-0.3,0.6-0.9,0.6C462.1,378.2,461.8,377.9,461.4,377.6z"/>
		</g>
		<g>
			<path class="st0" d="M506.7,383.4c0.3-1,0.6-1.2,1.2-1.2h0.9c2,0,3.4,0,3.6-4l0.8-11.3c0.1-1.2-0.4-1.9-2.1-2.2
				c-0.2,0-0.1-1.4,0.2-1.4h1.4c0.6,0,0.8-0.1,0.9-0.7c0.5-4.7,5-8.6,8-8.6c1,0,2,0.1,1.6,1.7c-0.3,1-0.7,1.6-1.3,1.4l-1.2-0.3
				c-2-0.5-3.3,0.1-3.5,4l-0.1,1.4c-0.1,0.8,0.4,1,1.2,1h3.2c0.8,0,0.2,2.6-0.8,2.4l-0.9-0.2c-2.3-0.4-3,0-3,1.3l-0.7,9.6
				c-0.3,4.7-5.1,8.6-8.1,8.6C507.2,385,506.4,384.8,506.7,383.4z"/>
		</g>
		<g>
			<path class="st0" d="M531.7,372.9c0-5.4,4.4-10.2,8.7-10.2c2.6,0,4.7,1.7,4.7,5.4c0,5.4-4.4,10.2-8.7,10.2
				C533.8,378.3,531.7,376.6,531.7,372.9z M541.7,369.1c0-3.4-1.4-4.5-3.2-4.5c-2.1,0-3.4,4-3.4,7.3c0,3.4,1.3,4.5,3.2,4.5
				C540.5,376.4,541.7,372.3,541.7,369.1z"/>
		</g>
		<g>
			<path class="st0" d="M570.1,364.6c-1.5,5.1-1.9,2.5-3.6,2.5c-0.6,0-1-0.1-3.5,6.3l-1.7,4.4c-0.2,0.6-3.4,0.7-3.3,0l1-10.6
				c0.1-1.3-0.3-1.9-1.1-1.9c-0.4,0-0.7-0.7-0.2-1l1.7-1.2c1.3-0.9,3.3,0.1,3.2,1.1l-0.8,8.1l0.5-1.1c3.8-8.6,4.7-8.5,5.5-8.5
				C569.2,362.7,570.2,364.1,570.1,364.6z"/>
		</g>
		<g>
			<path class="st0" d="M605.8,375.8l0.3-1.2c0.9-3.5,2.1,1.5,7.3,1.5c2.5,0,3.6-1.2,3.6-3c0-1.3-0.8-1.9-3.2-3.4l-2.6-1.8
				c-3.5-2.3-5.1-3.5-5.1-6c0-4,3.9-6.6,7.8-6.6c2.4,0,5.5,1,5.1,2.1l-0.4,1.2c-1.1,3.3-1.8-1.1-6.1-1.1c-2.1,0-3.2,1-3.2,2.6
				c0,1.4,0.9,2.2,3,3.5l3,1.9c3.4,2.2,4.8,3.6,4.8,5.9c0,4-3.9,6.8-8.1,6.8C609.4,378.3,605.4,377.2,605.8,375.8z"/>
		</g>
		<g>
			<path class="st0" d="M640.6,376.6c1.8-0.5,3.2-0.8,3.2-3.1v-13.7c0-2.2-1.3-2.6-2.6-2.8c-0.3,0-0.1-1.2,0.2-1.2h9
				c0.2,0,0.4,1.1,0.2,1.2c-1.3,0.1-2.5,0.6-2.5,2.8v13.7c0,1.8,0.7,2.5,3.2,2.5c4.5,0,6.6-2.3,7.3-3.4c0.2-0.3,1.1-0.1,1.1,0.4
				c0,1.5-1.4,4.8-3.4,4.8c-1.9-0.1-3.5-0.2-6.1-0.2c-2.9,0-6.5-0.1-9.4,0.2C640.5,377.9,640.4,376.7,640.6,376.6z"/>
		</g>
		<g>
			<path class="st0" d="M679.4,376.6c1.8-0.5,3.2-0.8,3.2-3.1v-13.8c0-1.9-1.3-2.4-2.6-2.8c-0.3-0.1-0.1-1.2,0.2-1.1
				c2.3,0.3,6.7,0.2,8.3,0.2c2.9,0,4.9-0.1,7.5-0.2c0.8,0,0.8,0.5,0.6,1.2l-0.8,3c-0.1,0.4-0.9,0.4-1,0c-0.5-1.6-1.4-2.4-5.3-2.4
				c-2.1,0-2.8,0.6-2.8,2.1v5.1c0,0.8,0.4,1,1,1h0.7c2.4,0,4.6-0.3,5.9-1.3c0.3-0.3,1-0.2,0.7,0.4l-1.8,4c-0.3,0.6-0.8,0.6-1.1,0.1
				c-0.7-1-2.3-1.4-4-1.4h-0.5c-0.6,0-1,0.2-1,1v5.1c0,1.8,0.7,2.5,3.2,2.5c4.5,0,6.6-2.3,7.3-3.4c0.2-0.3,1.1-0.1,1.1,0.4
				c0,1.5-1.4,4.8-3.4,4.8c-1.9-0.1-3.5-0.2-6.1-0.2c-2.9,0-6.5-0.1-9.4,0.2C679.3,377.9,679.1,376.7,679.4,376.6z"/>
		</g>
		<g>
			<path class="st0" d="M718.6,376.6c1.8-0.5,3.2-0.8,3.2-3.1v-13.8c0-1.9-1.3-2.4-2.6-2.8c-0.3-0.1-0.1-1.2,0.2-1.1
				c2.3,0.3,6.7,0.2,8.3,0.2c2.9,0,4.9-0.1,7.5-0.2c0.8,0,0.8,0.5,0.6,1.2l-0.8,3c-0.1,0.4-0.9,0.4-1,0c-0.5-1.6-1.4-2.4-5.3-2.4
				c-2.1,0-2.8,0.6-2.8,2.1v5.1c0,0.8,0.4,1,1,1h0.7c2.4,0,4.6-0.3,5.9-1.3c0.3-0.3,1-0.2,0.7,0.4l-1.8,4c-0.3,0.6-0.8,0.6-1.1,0.1
				c-0.7-1-2.3-1.4-4-1.4h-0.5c-0.6,0-1,0.2-1,1v5.1c0,1.8,0.7,2.5,3.2,2.5c4.5,0,6.6-2.3,7.3-3.4c0.2-0.3,1.1-0.1,1.1,0.4
				c0,1.5-1.4,4.8-3.4,4.8c-1.9-0.1-3.5-0.2-6.1-0.2c-2.9,0-6.5-0.1-9.4,0.2C718.5,377.9,718.4,376.7,718.6,376.6z"/>
		</g>
		<g>
			<path class="st0" d="M765.1,369.5v4.4c0,2.2,1.5,2.6,3.5,2.8c0.2,0,0.1,1.2-0.2,1.2h-9.9c-0.3,0-0.4-1.1-0.2-1.2
				c1.6-0.2,2.6-0.9,2.6-2.8V360c0-2.1-1.1-2.7-2.6-3.1c-0.3-0.1-0.1-1.2,0.2-1.2c1.2,0.2,2.6,0.2,3.6,0.2c2.5,0,4.5-0.2,6.1-0.2
				c5,0,9.1,1.8,9.1,6.7C777.3,368.1,772.1,370.5,765.1,369.5z M765.1,360v7.8c5.1,0.7,7.7-0.7,7.7-4.6c0-3.4-2.1-5.7-5.4-5.7
				C765.5,357.6,765.1,358.2,765.1,360z"/>
		</g>
	</g>
	<g>
		<g>
			<g>
				<path class="st0" d="M493.2,96.5h-52.8c-1.2,0-2.2-1-2.2-2.2s1-2.2,2.2-2.2h52.8c4,0,8.2-3.2,8.2-9.1c0-4.7-3.7-9.8-9.2-9.8
					c-1.5,0-2.5,0.2-3.1,0.4c-0.9,0.3-1.9,0.1-2.7-0.5c-0.8-0.6-1.2-1.5-1.3-2.4c-0.1-1.8-0.5-6.3-2.9-10.2
					c-2.8-4.6-7.6-6.9-14.1-6.9c-3,0-4.6,0.3-5.2,0.6c-0.8,0.3-1.7,0.2-2.5-0.2c-0.8-0.4-1.3-1.1-1.6-1.9c-0.5-1.7-1.7-4.9-4.5-7.8
					c-3.5-3.6-8.4-5.4-14.6-5.4c-3.3,0-6.1,1.1-9.4,2.4c-4.1,1.6-8.8,3.4-15.4,3.4c-6.4,0-12.3-1.9-16.5-5.3c-4.5-3.6-7-8.9-7-14.8
					c0-1.2,1-2.2,2.2-2.2c1.2,0,2.2,1,2.2,2.2c0,4.6,1.8,8.5,5.3,11.3c3.4,2.8,8.3,4.3,13.7,4.3c5.7,0,9.8-1.6,13.8-3.1
					c3.6-1.4,6.9-2.7,11-2.7c15.9,0,21.4,10.5,23,15.3c1.4-0.3,3.2-0.5,5.3-0.5c10.2,0,15.4,4.9,17.9,9c2.4,3.8,3.2,8,3.4,10.9
					c0.8-0.1,1.7-0.2,2.7-0.2c8.2,0,13.6,7.4,13.6,14.3c0,5.1-2.2,8.3-4,10C499.6,95.2,496.4,96.5,493.2,96.5z"/>
			</g>
		</g>
		<g>
			<g>
				<path class="st0" d="M364.6,121.5c-12.1,0-19.7-5.8-19.7-15.2c0-4.2,1.7-8,4.9-10.9c5.6-5.2,15.3-7.6,27.2-6.7
					c1.2,0.1,2.2,1.2,2.1,2.4c-0.1,1.2-1.2,2.2-2.4,2.1c-10.5-0.8-19.2,1.2-23.8,5.5c-2.3,2.1-3.5,4.7-3.5,7.7
					c0,9.6,10.6,10.7,15.2,10.7c7.5,0,14.1-2.1,19.8-6.1c4.1-2.9,6.4-6.1,7.2-7.4V24.2c0-1.2,1-2.2,2.2-2.2c1.2,0,2.2,1,2.2,2.2V104
					c0,0.3-0.1,0.7-0.2,1c-0.8,1.7-3.7,5.8-8.9,9.6C380.7,119.1,372.9,121.5,364.6,121.5z"/>
			</g>
		</g>
		<g>
			<g>
				<path class="st0" d="M338.7,88h-51.4c-4.9,0-10.2-3.8-10.2-10.9c0-5.5,4.4-11.4,10.9-11.4c0.6,0,1.1,0,1.6,0.1
					c1-7.6,5.9-15.2,16.7-15.2c1.6,0,2.9,0.2,3.9,0.3c1.6-3.4,6.1-10.3,16.7-10.3c3.8,0,7.4,0.8,10.4,2.4c2.3,1.2,3.5,2.5,3.6,2.6
					c0.8,0.9,0.7,2.3-0.2,3.2c-0.9,0.8-2.3,0.7-3.1-0.2c-0.2-0.2-3.4-3.5-10.7-3.5c-9.5,0-12.4,6.8-13.1,8.8
					c-0.2,0.7-0.7,1.2-1.3,1.6c-0.6,0.3-1.4,0.4-2.1,0.1c-0.5-0.2-1.8-0.5-4.1-0.5c-10.4,0-12.1,8.8-12.4,12.6
					c-0.1,0.9-0.5,1.7-1.3,2.3c-0.7,0.5-1.7,0.7-2.5,0.5c-0.4-0.1-1.1-0.2-2.2-0.2c-3.1,0-6.4,2.8-6.4,7c0,3.1,2,6.4,5.7,6.4h51.4
					c1.2,0,2.2,1,2.2,2.2S339.9,88,338.7,88z"/>
			</g>
		</g>
		<g>
			<g>
				<path class="st0" d="M401.6,124.6c-1.1,0-2-0.8-2.2-1.8c-0.2-1.2,0.6-2.4,1.8-2.6c11.8-2.2,22.7-8.4,30.6-17.5
					c8.1-9.2,12.7-21.1,13.1-33.3c0.2-5.2-0.4-10.4-1.7-15.4c-0.3-1.2,0.4-2.4,1.6-2.7c1.2-0.3,2.4,0.4,2.7,1.6
					c1.4,5.4,2.1,11,1.9,16.7c-0.4,13.3-5.5,26.1-14.2,36.1c-8.6,9.9-20.4,16.6-33.2,18.9C401.9,124.6,401.8,124.6,401.6,124.6z"/>
			</g>
		</g>
		<g>
			<g>
				<path class="st0" d="M339,88c-0.9,0-1.8-0.6-2.1-1.5c-2.1-6.1-3.2-12.4-3.2-18.9c0-15.5,6-30,17-40.9c10.9-10.9,25.5-17,40.9-17
					c14.8,0,28.5,5.3,38.7,14.8c4.1,3.8,7.6,8.4,8.9,10.2c0.7,1,0.5,2.4-0.5,3.1c-1,0.7-2.4,0.5-3.1-0.5c-1.3-1.7-4.6-6-8.4-9.6
					c-9.3-8.8-22-13.6-35.6-13.6c-29.4,0-53.4,24-53.4,53.4c0,6,1,11.8,2.9,17.4c0.4,1.2-0.2,2.4-1.4,2.8C339.5,88,339.3,88,339,88z
					"/>
			</g>
		</g>
	</g>
	<g>
		<g>
			<path class="st0" d="M16.6,293.8l-1.2,4.5c-0.2,0.7,0,1.5,0.6,2.3c3,3.9,14.9,7.7,24.5,7.7c18.4,0,34.5-13.5,34.5-28.9
				c0-8.8-5-14.9-18.5-22.7l-17.8-10.3c-8.9-5.2-13.4-9.1-13.4-15.8c0-8.8,7-14.6,17.9-14.6c9.8,0,15.6,4.4,19.5,7.2
				c1.5,1.1,3,2.2,3.8,2.2c0.1,0,0.2,0,0.2,0c0.6-0.2,1.2-1.3,1.8-3.2l1.5-5c0.2-0.6,0-1.2-0.5-1.9c-2.5-3.3-12-6.2-20.8-6.2
				c-17.6,0-31.9,12-31.9,26.8c0,8.6,5,14.9,17.7,22.3l18.1,10.4c7.9,4.5,14.1,8,14.1,16.3c0,9.8-8.3,16.1-21.1,16.1
				c-12.1,0-19-5.3-23.1-8.5c-1.6-1.3-3-2.3-3.8-2.3c-0.1,0-0.2,0-0.2,0C17.8,290.5,17.2,291.7,16.6,293.8z"/>
		</g>
		<g>
			<path class="st0" d="M160.3,304c-2.6-0.3-5.9-1-8.3-3.1c-2.5-2.1-3.8-5.4-3.8-10.1l0-26.1c0.9-2.9,4.3-2.9,7-2.9h42.3
				c2.8,0,6.3,0,7.1,2.9l0,0.2l0,25.9c0,9.9-6.2,12.2-12.3,13.2c0,0.3,0,0.7,0.2,1.2c0.2,0.5,0.4,0.8,0.5,0.9l33.5,0
				c0.1-0.1,0.3-0.4,0.5-0.9c0.2-0.6,0.2-1.1,0.1-1.3c-2.6-0.3-5.9-1-8.3-3.1c-2.5-2.1-3.8-5.4-3.8-10.1v-64.1
				c0-10,5.8-12.3,12.1-13.2c0-0.2,0-0.7-0.2-1.2c-0.2-0.5-0.4-0.8-0.5-0.9l-33.5,0c-0.1,0.1-0.3,0.4-0.4,0.9
				c-0.2,0.6-0.2,1.1-0.1,1.3c2.6,0.4,5.8,1.1,8.3,3.1c2.6,2.2,3.9,5.4,3.9,10l0,27.5c-0.9,2.9-4.3,2.9-7.1,2.9h-42.3
				c-2.7,0-6.1,0-7-2.9l0-0.2l0-27.3c0-10,5.8-12.3,12.1-13.2c0-0.4-0.1-0.8-0.2-1.2c-0.2-0.5-0.4-0.8-0.5-0.9l-33.5,0
				c-0.1,0.1-0.3,0.4-0.4,0.9c-0.2,0.6-0.2,1.1-0.1,1.3c2.7,0.4,6,1.1,8.4,3.1c2.6,2.1,3.8,5.4,3.8,10v64.1
				c0,9.9-5.9,12.2-12.3,13.2c0,0.5,0.1,0.9,0.2,1.2c0.2,0.5,0.4,0.8,0.5,0.9l33.5,0c0.1-0.1,0.3-0.4,0.4-0.9h0
				C160.3,304.6,160.3,304.1,160.3,304z"/>
		</g>
		<g>
			<path class="st0" d="M374.3,258.3c0-28.4-20.3-49-48.3-49c-28.3,0-48.8,21-48.8,49.9c0,28.4,20.4,49.1,48.6,49.1
				C353.9,308.3,374.3,287.3,374.3,258.3z M330.3,302.4c-20.9,0-42.6-18.6-42.6-49.8c0-27.6,18-37.4,33.5-37.4
				c21,0,42.7,18.6,42.7,49.6C363.9,292.6,345.8,302.4,330.3,302.4z"/>
		</g>
		<g>
			<path class="st0" d="M503.1,229.6c5.4-12.2,8.9-14.6,15.1-15.5c0.5-0.1,0.5-0.9,0.5-1.3c-0.1-0.8-0.4-1.4-0.7-1.4h-28.3
				c-0.4,0-0.7,0.6-0.7,1.2c-0.1,0.6,0.1,1.3,0.5,1.4l0.3,0.1c3.6,0.8,7.1,1.6,8.6,4.6c1.3,2.5,0.8,6.2-1.4,11.5l-27.4,64.9
				l-0.2-0.4l-26.9-64.5c-2.3-5.5-2.7-9.4-1.4-11.9c1.4-2.7,4.5-3.5,7.2-4.2c0.4-0.1,0.6-0.8,0.5-1.4c-0.1-0.6-0.4-1.2-0.7-1.2H416
				c-0.3,0-0.7,0.6-0.7,1.4c0,0.6,0.1,1.2,0.5,1.3c6.1,1,10,3.6,15,15.6l33.4,78.7c1.3,0.2,7.3-1.1,8.6-1.8
				c0.1-5.3,1.9-11.3,7.2-23.8L503.1,229.6z"/>
		</g>
		<g>
			<path class="st0" d="M640.3,285.1c-0.6-0.1-1.3,0.1-1.7,0.8c-4.5,7.9-11.7,15.1-34.2,15.1c-11.3,0-17.1-1.7-17.1-11v-24.6
				c0-4.5,2.9-5.1,5.4-5.1h1.2c10.5,0,17.5,2,20.8,5.9c0.7,0.8,1.3,1.3,1.9,1.3c0,0,0,0,0.1,0c0.4,0,0.7-0.3,0.9-0.9l8.3-17.3
				c0.1-0.3,0.3-0.8,0-0.9c-0.3-0.2-1.2-0.1-1.8,0.4c-6.5,6.6-15.3,7.1-29,7.1h-2.5c-2.5,0-5.4-0.6-5.4-5.1v-23.1
				c0-8.6,3.7-11.4,15.2-11.4c19,0,23.3,5.8,25.1,12c0.2,0.5,0.8,0.7,1.5,0.7c0,0,0,0,0,0c0.5,0,1.1-0.2,1.2-0.7l3.5-13
				c0.3-1.5,0.6-3.1,0.1-3.7c-0.3-0.3-0.8-0.5-1.6-0.5c-2.8,0.1-5.7,0.2-8.5,0.3l-1.1,0c-7.1,0.3-14.4,0.5-23.1,0.5
				c-10.3,0-23.5-0.1-34.4-0.8c0,0-0.1,0-0.3,0.4c-0.3,0.8-0.3,1.7-0.2,1.9c6.4,1.5,12.4,4.2,12.4,14.2V290c0,10.5-6.3,12-14.3,14.1
				l-0.7,0.2c-0.1,0.2-0.1,1,0.2,1.7c0.1,0.3,0.2,0.4,0.3,0.4c10.1-1,20.2-0.9,30-0.9l0.5,0c2.6,0,5.1,0,7.7,0
				c12.2,0,22.3,0.4,27.6,0.8c3.4-0.1,6.8-2.6,9.3-7.1c2.2-3.9,3.6-8.8,3.6-12.8C641.2,285.7,640.8,285.2,640.3,285.1z"/>
		</g>
		<g>
			<path class="st0" d="M688.8,306.4c7.8-0.7,15.6-0.9,23.2-0.9c2.3,0,4.6,0,6.8,0l0.5,0c2.6,0,5.1,0,7.7,0
				c12.2,0,22.3,0.4,27.6,0.8c3.4-0.1,6.8-2.6,9.3-7.1c2.2-3.9,3.6-8.8,3.6-12.8c0-0.7-0.3-1.2-0.9-1.4c-0.6-0.1-1.3,0.1-1.7,0.8
				c-4.5,7.9-11.7,15.1-34.2,15.1c-11.3,0-17.1-1.7-17.1-11v-63.3c0-10,5.8-12.3,12-13.1c0-0.3,0-0.8-0.2-1.4
				c-0.1-0.5-0.3-0.7-0.4-0.8l-33.7,0c-0.1,0.2-0.3,0.5-0.4,1.1c-0.1,0.5-0.1,0.9-0.1,1c2.7,0.4,6,1,8.5,3.1c2.6,2.1,3.8,5.4,3.8,10
				V290c0,10.5-6.3,12-14.3,14.1l-0.7,0.2c-0.1,0.2-0.1,1,0.2,1.7C688.6,306.3,688.7,306.4,688.8,306.4z"/>
		</g>
	</g>
	<g>
		<g>
			<path class="st0" d="M260.4,427.6c-0.2-0.6-0.4-0.8-0.5-0.9h-28.1c-0.1,0-0.2,0.2-0.4,0.6c-0.3,0.7-0.2,1.3-0.1,1.5l0.2,0
				c5.4,1.4,11.6,3,11.6,12.8v58.7l-0.3-0.4l-64.3-72.2c-0.7-0.8-1.3-0.9-2.7-0.9h-8.8c-0.6,0-1.3,0.9-1.3,1.7
				c0.1,0.1,0.5,0.4,0.6,0.5c0.3,0.2,0.6,0.5,0.9,0.7c5.4,5.2,5.8,12,5.8,19.7v53.9c0,8.4-4.3,11.1-11.7,12.8c0,0.2,0,1,0.3,1.6
				c0.1,0.3,0.2,0.4,0.3,0.4h28.1c0.1,0,0.2-0.2,0.4-0.6c0.3-0.7,0.2-1.3,0.1-1.5c-5.5-1.4-11.8-3.1-11.8-12.8v-59.2l0.3,0.4
				l65.8,73.1c1.1,1.3,1.7,1.9,3.2,1.9c0.9,0,2-0.3,2.4-0.8c0.2-0.2,0.2-0.5,0.1-0.9c-1.4-4.7-1.6-13.5-1.6-22.3v-53.9
				c0-10,5.7-11.4,11.7-12.8C260.5,428.7,260.6,428.3,260.4,427.6z"/>
		</g>
		<g>
			<path class="st0" d="M343.5,427.6c-0.2-0.5-0.4-0.8-0.4-0.9l-32.3,0c-0.1,0.1-0.3,0.3-0.4,0.9c-0.2,0.6-0.2,1-0.1,1.2
				c2.6,0.4,5.8,1,8.1,3c2.5,2.1,3.7,5.2,3.7,9.6v61.9c0,9.6-5.6,11.8-11.8,12.7c0,0.2,0,0.6,0.1,1.2c0.1,0.5,0.4,0.8,0.4,0.9
				l32.3,0c0.1-0.1,0.3-0.3,0.4-0.9c0.2-0.6,0.2-1,0.1-1.2c-2.5-0.3-5.7-1-8-3c-2.4-2.1-3.6-5.2-3.6-9.7v-61.9
				c0-9.7,5.6-11.9,11.7-12.7C343.7,428.6,343.6,428.2,343.5,427.6z"/>
		</g>
		<g>
			<path class="st0" d="M485.6,479.6c0-0.2-0.1-0.6-1.2-0.6h-30.7c-1.5,0-2.2,1.3-2.3,2.3c0,0.3,0,0.6,0.2,0.7
				c11.9,1.9,15.6,5.6,15.6,15.9v2.5c0,9.1-6.1,14.5-16.3,14.5c-9.9,0-21.5-4.1-29.1-11.1c-6.6-6-14.5-17.1-14.5-35.9
				c0-22.4,11.6-35.9,32.8-35.9c13.2,0,22.9,3.7,27.9,6.1c3.2,1.5,4.3,2,5,2c0.9,0,1-0.4,1.6-2.2l2.1-5.8c0.1-0.4,0.1-0.8-0.3-1.2
				c-2.7-3.1-15.8-6.2-26.4-6.2c-36.7,0-53.1,25.1-53.1,50.1c0,33.6,30.5,45.6,58.1,45.6c3.4,0,16.4-5.9,23.9-9.6
				c-2.1-4.1-2.1-6.4-2.1-9.9v-5.3c0-8,2.3-12,7.8-13.5C484.8,481.8,485.8,480.5,485.6,479.6z"/>
		</g>
		<g>
			<path class="st0" d="M629.8,427.6c-0.2-0.5-0.4-0.8-0.4-0.9l-32.3,0c-0.1,0.1-0.3,0.3-0.4,0.9c-0.2,0.6-0.2,1-0.1,1.2
				c2.5,0.4,5.6,1,8,3c2.5,2.1,3.8,5.3,3.8,9.7l0,26.5c-0.8,2.8-4.2,2.8-6.9,2.8h-40.8c-2.6,0-5.9,0-6.7-2.8l0-0.2l0-26.3
				c0-9.7,5.6-11.9,11.7-12.7c0-0.2,0-0.7-0.2-1.2c-0.1-0.5-0.4-0.8-0.4-0.9l-32.3,0c-0.1,0.1-0.3,0.3-0.4,0.9
				c-0.2,0.6-0.2,1-0.1,1.2c2.6,0.4,5.8,1,8.1,3c2.5,2.1,3.7,5.2,3.7,9.6v61.9c0,9.6-5.7,11.8-11.8,12.7c0,0.5,0.1,0.9,0.2,1.2
				c0.2,0.5,0.4,0.8,0.4,0.9l32.3,0c0.1-0.1,0.3-0.3,0.4-0.9c0.2-0.6,0.2-1,0.1-1.2c-2.5-0.3-5.7-1-8-3c-2.4-2.1-3.6-5.2-3.6-9.7
				l0-25.2c0.8-2.8,4.1-2.8,6.7-2.8h40.8c2.7,0,6,0,6.9,2.8l0,0.2l0,25c0,9.6-5.9,11.8-11.8,12.7c0,0.3,0,0.7,0.2,1.2
				c0.2,0.5,0.4,0.8,0.4,0.9l32.2,0c0.1-0.1,0.3-0.4,0.4-0.9c0.2-0.6,0.2-1,0.1-1.2c-2.5-0.3-5.7-1-8-3c-2.4-2.1-3.6-5.2-3.6-9.7
				v-61.9c0-9.7,5.6-11.9,11.7-12.7C629.9,428.6,629.9,428.2,629.8,427.6z"/>
		</g>
		<g>
			<g>
				<path class="st0" d="M55,534.4c-7.6-1.1-14.6-3.8-14.6-16v-74.2c0-12.2,7-14.9,14.6-16c0,0,0-0.1,0-0.2c0-0.8-0.4-1.5-0.6-1.7
					H15.8c-0.2,0.2-0.5,0.9-0.5,1.7c0,0.1,0,0.1,0,0.2c7.3,1.2,14.7,4,14.7,16v74.2c0,12-7.4,14.8-14.7,16c0,0,0,0.1,0,0.2
					c0,0.8,0.4,1.5,0.6,1.7h38.6c0.2-0.2,0.5-0.9,0.6-1.7C55,534.5,55,534.5,55,534.4z"/>
			</g>
			<g>
				<path class="st0" d="M124.2,541.8l0.2,0L124.2,541.8C124.2,541.8,124.2,541.7,124.2,541.8c-4.5-0.3-10.6-4.6-19.7-14.1l-48.4-50
					l0.9-0.9l32.6-32c11.6-11.3,18.6-15.6,26.7-16.6c0-0.1,0-0.2,0-0.3c0-0.7-0.3-1.3-0.5-1.5H82.3c-0.1,0.2-0.3,0.5-0.4,1.1
					c0,0.3,0,0.7,0.2,0.7c4.4,0.7,6.8,2,7.5,4.2c1,2.9-1.1,6.6-6.9,12.4l-37,37.1l50.5,53.3c9.6,9.6,20,12.2,27.7,8.5
					C124.1,543.5,124.3,542.6,124.2,541.8z"/>
			</g>
		</g>
		<g>
			<path class="st0" d="M766.6,426.1c-4.3,0.7-18.9,1-47.1,1c-31,0-39.7-0.4-43.6-1c-3.1-0.4-3.1,0.2-3.2,0.9
				c-0.7,5.1-1.4,8.4-2.2,11.8l0,0.2c-0.4,1.8-0.9,3.8-1.3,6c0.4,0.1,1.6,0,2-0.9c4.9-9.4,10.4-11.6,29.5-11.6h6.4
				c4.6,0,6.7,2.1,6.7,6.9v80.9c0,9.7-7.6,12.7-19.1,14.2c0.1,0.4,0.3,1.5,0.4,1.7h48.2c0.1-0.2,0.3-1.3,0.4-1.7
				c-11.6-1.5-19.3-4.5-19.3-14.2v-80.9c0-2.1,0.8-6.9,7.8-6.9h6.7c15.7,0,23,1.7,24.6,12.1c0.1,0.5,0.7,0.6,0.9,0.6
				c0.5,0,0.6-0.3,0.7-0.6c0.8-5.6,2-9.5,3.6-14.9c0.3-1.2,0.7-2.2,1-3.4c0-0.1,0-0.2,0.1-0.2C769,426,768,426,766.6,426.1z"/>
		</g>
	</g>
</g>
</svg>
