<?xml version="1.0" encoding="utf-8"?>
<!-- Generator: Adobe Illustrator 16.2.1, SVG Export Plug-In . SVG Version: 6.00 Build 0)  -->
<!DOCTYPE svg PUBLIC "-//W3C//DTD SVG 1.1//EN" "http://www.w3.org/Graphics/SVG/1.1/DTD/svg11.dtd">
<svg version="1.1" id="Layer_1" xmlns="http://www.w3.org/2000/svg" xmlns:xlink="http://www.w3.org/1999/xlink" x="0px" y="0px"
	 width="940px" height="279px" viewBox="19.5 36.5 940 279" enable-background="new 19.5 36.5 940 279" xml:space="preserve">
<g>
	<g>
		<g>
			<path fill="#FFFFFF" d="M476.676,209.026c-5.795,0-11.586-0.633-17.208-1.883c-1.483-0.33-2.417-1.799-2.088-3.28
				c0.328-1.482,1.781-2.406,3.283-2.088c5.228,1.165,10.617,1.753,16.014,1.753c21.231,0,39.31-6.961,52.283-20.13
				c1.065-1.081,2.809-1.096,3.887-0.03c1.083,1.065,1.097,2.808,0.03,3.888C518.848,201.499,499.414,209.026,476.676,209.026z"/>
		</g>
		<g>
			<path fill="#FFFFFF" d="M441.737,202.038c-7.947,0.002-15.337-2.166-20.079-6.105c-3.683-3.06-5.63-7.011-5.63-11.43
				c0-11.396,12.34-21.97,29.345-25.145c7.402-1.386,15.465-1.018,21.268,0.797V64.397c0-1.519,1.231-2.75,2.75-2.75h8.851
				c1.429,0,2.62,1.102,2.743,2.524c0.005,0.073,0.674,7.363,5.591,14.044c6.033,8.205,16.115,8.967,24.874,9.039V65.483
				c-10.632-5.726-22.617-8.745-34.771-8.745c-40.467,0-73.39,32.925-73.39,73.395c0,14.574,4.263,28.655,12.324,40.721
				c0.844,1.264,0.504,2.972-0.759,3.814c-1.259,0.842-2.966,0.507-3.812-0.758c-8.669-12.972-13.252-28.111-13.252-43.776
				c0-43.504,35.392-78.894,78.891-78.894c13.635,0,27.08,3.539,38.878,10.23c0.859,0.488,1.392,1.401,1.392,2.392v26.151
				c-0.003,1.551-1.31,2.76-2.854,2.75c-10.078,0-23.681-0.039-31.948-11.286c-4.011-5.451-5.629-11.146-6.261-14.328h-3.745v97.155
				c0,0.986-0.528,1.897-1.386,2.387c-0.853,0.492-1.912,0.483-2.758-0.018c-4.449-2.617-13.538-3.416-21.613-1.91
				c-14.168,2.646-24.855,11.133-24.855,19.74c0,2.769,1.227,5.19,3.644,7.199c5.057,4.201,14.584,5.872,23.716,4.175
				c13.732-2.567,29.485-12.577,30.098-19.128c0.004-0.06,0.013-0.121,0.021-0.179v-74.649c0-0.757,0.312-1.478,0.86-1.998
				c0.553-0.517,1.305-0.775,2.043-0.748l1.891,0.105c0.005,0,0.008,0,0.013,0c52.468,0,63.513,27.229,63.513,50.073
				c0,15.438-4.16,26.391-14.356,37.806c-1.01,1.137-2.746,1.234-3.883,0.22c-1.132-1.011-1.23-2.75-0.22-3.884
				c9.326-10.436,12.957-20.01,12.957-34.14c0-29.36-19.282-44.354-57.317-44.575v72.228c0,0.265-0.038,0.526-0.109,0.769
				c-1.504,9.928-19.546,20.716-34.5,23.508C447.168,201.791,444.42,202.038,441.737,202.038z"/>
		</g>
		<g>
			<path fill="#FFFFFF" d="M574.617,162.038c-10.145,0-20.032-0.002-29.107-0.004c-1.521,0-2.749-1.23-2.749-2.75
				c0-1.519,1.231-2.75,2.749-2.75l0,0c26.723,0.008,60.466,0.013,87.195-0.03c2.049-0.004,3.816-0.221,5.256-0.642
				c5.431-1.599,8.868-6.602,8.545-12.45c-0.312-5.584-4.387-10.25-9.903-11.344c-1.852-0.372-3.804-0.077-5.891,0.23l-3.566,0.503
				c-0.867,0.105-1.693-0.163-2.299-0.752c-0.61-0.593-0.911-1.433-0.817-2.278c0.091-0.821,0.163-1.647,0.163-2.494
				c0-11.445-9.312-20.754-20.753-20.754c-2.832,0-5.586,0.565-8.178,1.681c-1.307,0.561-2.849,0.028-3.52-1.24l-2.16-4.094
				c-2.871-5.44-7.129-9.297-12.663-11.464c-10.695-4.194-29.79-2.69-36.828,13.832c-0.597,1.399-2.209,2.043-3.609,1.452
				c-1.396-0.595-2.044-2.211-1.452-3.61c8.47-19.867,31.2-21.774,43.896-16.796c6.797,2.666,12.018,7.379,15.516,14.014
				l1.035,1.958c2.569-0.818,5.232-1.232,7.962-1.232c14.348,0,26.043,11.568,26.249,25.865l0.228-0.032
				c2.454-0.363,4.984-0.732,7.756-0.184c7.979,1.583,13.869,8.342,14.326,16.435c0.459,8.32-4.681,15.735-12.487,18.032
				c-1.967,0.578-4.19,0.859-6.797,0.865C615.06,162.032,594.348,162.038,574.617,162.038z"/>
		</g>
		<g>
			<path fill="#FFFFFF" d="M378.374,152.434c-16.073,0-33.06-0.004-48.43-0.025c-2.299,0-4.357-0.265-6.118-0.786
				c-7.062-2.071-11.705-8.77-11.284-16.287c0.415-7.314,5.736-13.423,12.944-14.854c2.223-0.444,4.347-0.217,6.263,0.058
				c1.525-12.863,12.371-22.735,25.476-22.735c1.925,0,3.841,0.219,5.721,0.653l0.629-1.186c3.132-5.942,7.812-10.169,13.907-12.56
				c10.138-3.973,25.977-1.854,33.883,8.507c0.919,1.208,0.688,2.933-0.52,3.854c-1.206,0.92-2.933,0.691-3.854-0.52
				c-6.706-8.792-20.279-9.548-27.502-6.721c-4.83,1.892-8.549,5.259-11.049,10.004l-1.674,3.152c-0.63,1.181-2.024,1.74-3.28,1.319
				c-2.039-0.666-4.146-1.005-6.26-1.005c-11.123,0-20.17,9.047-20.17,20.165c0,0.795-0.339,1.655-0.939,2.177
				c-0.6,0.523-1.386,0.861-2.176,0.756l-2.303-0.321c-1.807-0.267-3.517-0.518-5.079-0.204c-4.749,0.944-8.252,4.961-8.525,9.769
				c-0.282,5.029,2.67,9.331,7.348,10.704c1.261,0.372,2.795,0.561,4.567,0.561c19.639,0.028,41.922,0.028,61.552,0.025
				c1.519,0,2.75,1.231,2.75,2.75c0,1.52-1.23,2.75-2.75,2.75C387.234,152.434,382.838,152.434,378.374,152.434z"/>
		</g>
	</g>
	<g>
		<path fill="#FFFFFF" d="M58.837,269.683c0,7.502-4.981,12.817-14.218,12.817h-4.76v12.768c0,0.505-0.334,0.843-0.838,0.843h-5.99
			c-0.503,0-0.84-0.338-0.84-0.843v-37.507c0-0.501,0.337-0.838,0.84-0.838h11.588C53.855,256.923,58.837,262.237,58.837,269.683z
			 M51.502,269.683c0-4.531-3.469-5.991-7.052-5.991h-4.592v11.981h4.592C48.033,275.673,51.502,274.277,51.502,269.683z"/>
		<path fill="#FFFFFF" d="M106.875,296.108h-6.383c-0.448,0-0.783-0.173-1.007-0.558L91.033,282.5h-3.245v12.768
			c0,0.505-0.338,0.843-0.841,0.843h-5.99c-0.503,0-0.841-0.338-0.841-0.843v-37.507c0-0.501,0.338-0.838,0.841-0.838h11.588
			c9.235,0,14.218,5.313,14.218,12.76c0,5.652-2.853,10.078-8.226,11.922l8.897,13.493
			C107.825,295.714,107.545,296.108,106.875,296.108z M87.788,275.673h4.588c3.583,0,7.054-1.396,7.054-5.99
			c0-4.531-3.472-5.991-7.054-5.991h-4.588V275.673z"/>
		<path fill="#FFFFFF" d="M151.778,290.177v5.091c0,0.505-0.337,0.843-0.841,0.843h-20.654c-0.503,0-0.841-0.338-0.841-0.843
			v-37.507c0-0.501,0.338-0.838,0.841-0.838h20.6c0.504,0,0.841,0.337,0.841,0.838v5.094c0,0.506-0.337,0.837-0.841,0.837h-13.771
			v8.852h12.931c0.503,0,0.84,0.334,0.84,0.839v5.095c0,0.5-0.337,0.838-0.84,0.838h-12.931v10.021h13.828
			C151.441,289.333,151.778,289.665,151.778,290.177z"/>
		<path fill="#FFFFFF" d="M200.097,285.245c0,7.385-6.775,11.584-13.603,11.584c-5.712,0-10.638-3.019-13.211-6.096
			c-0.278-0.396-0.278-0.789,0.055-1.173l3.358-3.642c0.337-0.395,0.784-0.453,1.232-0.057c2.687,2.349,5.319,3.803,8.733,3.803
			c3.303,0,5.933-1.791,5.933-4.583c0-6.944-18.583-4.816-18.583-17.633c0-6.828,5.766-10.976,12.204-10.976
			c4.868,0,8.842,2.07,11.978,5.205c0.393,0.396,0.393,0.732,0,1.175l-3.079,3.749c-0.334,0.449-0.727,0.509-1.175,0.169
			c-2.741-2.129-4.702-3.133-7.499-3.133c-3.135,0-4.981,1.681-4.981,3.972C181.457,274.498,200.097,271.648,200.097,285.245z"/>
		<path fill="#FFFFFF" d="M254.347,290.002c0.392,0.396,0.392,0.785,0,1.175c-3.47,3.478-8.23,5.652-13.659,5.652
			c-11.195,0-20.151-8.897-20.151-20.146c0-11.306,8.957-20.21,20.151-20.21c5.429,0,10.189,2.182,13.659,5.653
			c0.392,0.389,0.392,0.786,0,1.18l-3.694,3.967c-0.337,0.396-0.785,0.396-1.174,0.059c-2.352-2.071-5.263-3.362-8.845-3.362
			c-6.829,0-12.202,5.432-12.202,12.715c0,7.222,5.374,12.648,12.202,12.648c3.582,0,6.493-1.284,8.845-3.354
			c0.39-0.338,0.838-0.338,1.174,0.052L254.347,290.002z"/>
		<path fill="#FFFFFF" d="M303,296.108h-6.382c-0.447,0-0.781-0.173-1.006-0.558l-8.453-13.051h-3.245v12.768
			c0,0.505-0.337,0.843-0.84,0.843h-5.99c-0.504,0-0.841-0.338-0.841-0.843v-37.507c0-0.501,0.337-0.838,0.841-0.838h11.588
			c9.235,0,14.217,5.313,14.217,12.76c0,5.652-2.852,10.078-8.226,11.922l8.898,13.493C303.952,295.714,303.673,296.108,303,296.108
			z M283.914,275.673h4.589c3.583,0,7.054-1.396,7.054-5.99c0-4.531-3.472-5.991-7.054-5.991h-4.589V275.673z"/>
		<path fill="#FFFFFF" d="M326.41,256.923h5.99c0.503,0,0.838,0.337,0.838,0.838v37.506c0,0.505-0.335,0.842-0.838,0.842h-5.99
			c-0.503,0-0.841-0.337-0.841-0.842v-37.506C325.569,257.26,325.907,256.923,326.41,256.923z"/>
		<path fill="#FFFFFF" d="M382.841,269.683c0,7.502-4.982,12.817-14.216,12.817h-4.761v12.768c0,0.505-0.334,0.843-0.838,0.843
			h-5.99c-0.503,0-0.84-0.338-0.84-0.843v-37.507c0-0.501,0.337-0.838,0.84-0.838h11.588
			C377.859,256.923,382.841,262.237,382.841,269.683z M375.507,269.683c0-4.531-3.467-5.991-7.051-5.991h-4.592v11.981h4.592
			C372.039,275.673,375.507,274.277,375.507,269.683z"/>
		<path fill="#FFFFFF" d="M429.312,257.761v5.094c0,0.506-0.337,0.837-0.84,0.837h-8.455v31.575c0,0.505-0.334,0.842-0.84,0.842
			h-5.988c-0.503,0-0.84-0.337-0.84-0.842v-31.575h-8.509c-0.503,0-0.84-0.331-0.84-0.837v-5.094c0-0.501,0.337-0.838,0.84-0.838
			h24.63C428.975,256.923,429.312,257.26,429.312,257.761z"/>
		<path fill="#FFFFFF" d="M451.994,256.923h5.99c0.504,0,0.841,0.337,0.841,0.838v37.506c0,0.505-0.337,0.842-0.841,0.842h-5.99
			c-0.503,0-0.84-0.337-0.84-0.842v-37.506C451.153,257.26,451.491,256.923,451.994,256.923z"/>
		<path fill="#FFFFFF" d="M480.657,276.687c0-11.255,9.069-20.211,20.151-20.211c11.084,0,20.151,8.956,20.151,20.211
			c0,11.188-9.067,20.144-20.151,20.144C489.727,296.83,480.657,287.874,480.657,276.687z M513.292,276.687
			c0-7.224-5.487-12.819-12.483-12.819c-6.998,0-12.481,5.594-12.481,12.819c0,7.163,5.483,12.759,12.481,12.759
			C507.805,289.445,513.292,283.85,513.292,276.687z"/>
		<path fill="#FFFFFF" d="M574.265,257.761v37.506c0,0.505-0.337,0.842-0.837,0.842h-6.887c-0.453,0-0.785-0.173-1.011-0.558
			l-15.053-26.59v26.306c0,0.505-0.337,0.842-0.843,0.842h-5.99c-0.503,0-0.843-0.337-0.843-0.842v-37.506
			c0-0.501,0.34-0.838,0.843-0.838h6.886c0.449,0,0.786,0.168,1.007,0.558l15.062,26.59v-26.31c0-0.501,0.333-0.838,0.839-0.838
			h5.99C573.928,256.923,574.265,257.26,574.265,257.761z"/>
		<path fill="#FFFFFF" d="M651,261.552c-0.047,1.57-1.223,2.696-2.746,2.696c-2.839,0-2.792-4.408-5.094-4.408
			c-1.268,0-3.478,1.321-4.502,8.086l-0.052,0.191h4.554c0.244,0,0.441,0.144,0.396,0.441l-0.198,1.274
			c-0.046,0.196-0.144,0.343-0.396,0.343h-4.652l-2.199,14.987c-2.258,15.04-9.456,18.169-14.253,18.169
			c-3.184,0-5.287-1.663-5.241-3.723c0.046-1.563,1.127-2.64,2.593-2.64c2.891,0,2.501,4.454,4.996,4.454
			c1.32,0,3.821-1.716,4.85-9.162l2.793-20.034c0.098-0.733,0.191-1.418,0.344-2.053h-4.265c-0.244,0-0.436-0.146-0.39-0.441
			l0.197-1.275c0.048-0.197,0.145-0.343,0.392-0.343h4.6c2.547-8.375,8.625-10.184,12.981-10.184
			C648.894,257.934,651.046,259.499,651,261.552z"/>
		<path fill="#FFFFFF" d="M672.704,277.423c0,8.183-6.177,15.528-13.375,15.528c-4.455,0-9.398-3.036-9.398-9.938
			c0-8.328,6.415-15.332,13.173-15.332C668.144,267.682,672.704,270.42,672.704,277.423z M663.154,269.345
			c-4.315,0-6.862,8.619-6.862,16.261c0,3.769,1.279,5.632,3.332,5.632c3.867,0,6.612-8.376,6.612-16.31
			C666.236,271.206,664.964,269.345,663.154,269.345z"/>
		<path fill="#FFFFFF" d="M702.435,270.856c0,2.06-1.319,3.235-2.884,3.235c-2.351,0-2.106-2.494-3.723-2.494
			c-3.577,0-6.468,11.416-7.741,21.012h-5.879l2.987-19.64c0.151-0.885-0.243-1.226-0.831-1.226c-0.832,0-2.11,0.977-2.99,1.86
			c-0.488,0.488-0.732,0.396-1.074,0.047c-0.291-0.292-0.291-0.535,0.144-1.122c2.794-3.334,5.781-4.845,8.474-4.845
			c2.258,0,2.891,1.367,2.449,3.769l-1.076,5.827c1.617-4.942,4.606-9.648,8.666-9.648
			C701.167,267.629,702.435,269.147,702.435,270.856z"/>
		<path fill="#FFFFFF" d="M764.443,285.245c0,7.385-6.771,11.584-13.596,11.584c-5.712,0-10.646-3.019-13.214-6.096
			c-0.279-0.396-0.279-0.789,0.058-1.173l3.356-3.642c0.337-0.395,0.784-0.453,1.231-0.057c2.688,2.349,5.322,3.803,8.73,3.803
			c3.302,0,5.932-1.791,5.932-4.583c0-6.944-18.582-4.816-18.582-17.633c0-6.828,5.764-10.976,12.209-10.976
			c4.861,0,8.84,2.07,11.973,5.205c0.391,0.396,0.391,0.732,0,1.175l-3.077,3.749c-0.337,0.449-0.733,0.509-1.174,0.169
			c-2.745-2.129-4.705-3.133-7.501-3.133c-3.136,0-4.98,1.681-4.98,3.972C745.809,274.498,764.443,271.648,764.443,285.245z"/>
		<path fill="#FFFFFF" d="M807.225,290.177v5.091c0,0.505-0.338,0.843-0.846,0.843h-19.533c-0.502,0-0.839-0.338-0.839-0.843
			v-37.507c0-0.501,0.337-0.838,0.839-0.838h5.989c0.5,0,0.839,0.337,0.839,0.838v31.572h12.707
			C806.887,289.333,807.225,289.665,807.225,290.177z"/>
		<path fill="#FFFFFF" d="M851.395,290.177v5.091c0,0.505-0.332,0.843-0.844,0.843h-20.652c-0.505,0-0.844-0.338-0.844-0.843
			v-37.507c0-0.501,0.339-0.838,0.844-0.838h20.6c0.506,0,0.846,0.337,0.846,0.838v5.094c0,0.506-0.34,0.837-0.846,0.837h-13.767
			v8.852h12.925c0.512,0,0.844,0.334,0.844,0.839v5.095c0,0.5-0.332,0.838-0.844,0.838h-12.925v10.021h13.819
			C851.065,289.333,851.395,289.665,851.395,290.177z"/>
		<path fill="#FFFFFF" d="M896.41,290.177v5.091c0,0.505-0.332,0.843-0.845,0.843h-20.651c-0.505,0-0.843-0.338-0.843-0.843v-37.507
			c0-0.501,0.338-0.838,0.843-0.838h20.602c0.507,0,0.844,0.337,0.844,0.838v5.094c0,0.506-0.337,0.837-0.844,0.837H881.75v8.852
			h12.921c0.514,0,0.845,0.334,0.845,0.839v5.095c0,0.5-0.331,0.838-0.845,0.838H881.75v10.021h13.816
			C896.078,289.333,896.41,289.665,896.41,290.177z"/>
		<path fill="#FFFFFF" d="M945.733,269.683c0,7.502-4.978,12.817-14.214,12.817h-4.757v12.768c0,0.505-0.337,0.843-0.844,0.843
			h-5.99c-0.507,0-0.844-0.338-0.844-0.843v-37.507c0-0.501,0.337-0.838,0.844-0.838h11.59
			C940.756,256.923,945.733,262.237,945.733,269.683z M938.406,269.683c0-4.531-3.479-5.991-7.062-5.991h-4.582v11.981h4.582
			C934.927,275.673,938.406,274.277,938.406,269.683z"/>
	</g>
</g>
</svg>
