<?xml version="1.0" encoding="utf-8"?>
<!-- Generator: Adobe Illustrator 16.0.0, SVG Export Plug-In . SVG Version: 6.00 Build 0)  -->
<!DOCTYPE svg PUBLIC "-//W3C//DTD SVG 1.1//EN" "http://www.w3.org/Graphics/SVG/1.1/DTD/svg11.dtd">
<svg version="1.1" id="Layer_1" xmlns="http://www.w3.org/2000/svg" xmlns:xlink="http://www.w3.org/1999/xlink" x="0px" y="0px"
	 width="960px" height="560px" viewBox="0 0 960 560" enable-background="new 0 0 960 560" xml:space="preserve">
<g>
	<g>
		<g>
			<path fill="#FFFFFF" d="M476.479,209.026c-6.001,0-11.996-0.656-17.816-1.95c-1.535-0.341-2.502-1.862-2.162-3.396
				c0.34-1.535,1.844-2.491,3.398-2.162c5.414,1.206,10.993,1.815,16.58,1.815c21.98,0,40.698-7.207,54.128-20.841
				c1.104-1.119,2.909-1.135,4.025-0.031c1.121,1.103,1.135,2.907,0.031,4.026C520.14,201.233,500.02,209.026,476.479,209.026z"/>
		</g>
		<g>
			<path fill="#FFFFFF" d="M440.306,201.791c-8.228,0.002-15.879-2.242-20.788-6.321c-3.814-3.167-5.83-7.258-5.83-11.833
				c0-11.798,12.776-22.746,30.381-26.033c7.663-1.435,16.011-1.054,22.019,0.825V59.29c0-1.572,1.274-2.847,2.847-2.847h9.164
				c1.479,0,2.711,1.141,2.838,2.613c0.006,0.076,0.699,7.623,5.79,14.54c6.246,8.495,16.683,9.284,25.751,9.358V60.414
				c-11.006-5.928-23.415-9.053-35.998-9.053c-41.896,0-75.981,34.087-75.981,75.986c0,15.089,4.413,29.667,12.759,42.159
				c0.874,1.308,0.522,3.076-0.785,3.948c-1.304,0.872-3.072,0.525-3.948-0.785c-8.975-13.43-13.72-29.103-13.72-45.322
				c0-45.04,36.641-81.68,81.676-81.68c14.117,0,28.037,3.664,40.251,10.592c0.89,0.505,1.441,1.45,1.441,2.476v27.074
				c-0.003,1.606-1.357,2.858-2.954,2.847c-10.435,0-24.517-0.04-33.077-11.684c-4.153-5.643-5.828-11.54-6.482-14.834h-3.877
				v100.586c0,1.021-0.547,1.964-1.435,2.471c-0.883,0.509-1.98,0.5-2.856-0.018c-4.606-2.709-14.015-3.537-22.376-1.978
				c-14.669,2.74-25.733,11.526-25.733,20.437c0,2.867,1.27,5.374,3.772,7.453c5.236,4.349,15.099,6.079,24.554,4.322
				c14.217-2.658,30.526-13.021,31.16-19.803c0.005-0.062,0.014-0.125,0.022-0.185V98.137c0-0.783,0.322-1.53,0.89-2.068
				c0.572-0.536,1.351-0.803,2.115-0.774l1.958,0.109c0.004,0,0.008,0,0.013,0c54.321,0,65.755,28.19,65.755,51.841
				c0,15.983-4.307,27.323-14.863,39.141c-1.045,1.177-2.843,1.277-4.02,0.227c-1.172-1.047-1.274-2.847-0.227-4.021
				c9.655-10.805,13.414-20.717,13.414-35.346c0-30.397-19.963-45.92-59.341-46.149v74.778c0,0.275-0.04,0.545-0.113,0.796
				c-1.558,10.278-20.237,21.447-35.718,24.338C445.929,201.535,443.084,201.791,440.306,201.791z"/>
		</g>
		<g>
			<path fill="#FFFFFF" d="M577.878,160.379c-10.503,0-20.739-0.002-30.135-0.004c-1.575,0-2.847-1.274-2.847-2.847
				s1.276-2.847,2.847-2.847l0,0c27.666,0.009,62.601,0.014,90.274-0.031c2.122-0.004,3.951-0.229,5.441-0.665
				c5.623-1.655,9.182-6.835,8.848-12.89c-0.324-5.781-4.542-10.612-10.254-11.744c-1.917-0.385-3.938-0.08-6.099,0.238
				l-3.692,0.521c-0.898,0.109-1.753-0.169-2.38-0.779c-0.632-0.614-0.943-1.483-0.846-2.358c0.094-0.85,0.169-1.706,0.169-2.582
				c0-11.849-9.64-21.487-21.486-21.487c-2.932,0-5.783,0.585-8.466,1.74c-1.353,0.58-2.949,0.029-3.644-1.284l-2.237-4.239
				c-2.972-5.632-7.38-9.625-13.11-11.869c-11.072-4.342-30.842-2.785-38.128,14.32c-0.618,1.448-2.287,2.115-3.737,1.503
				c-1.445-0.616-2.117-2.289-1.503-3.737c8.768-20.568,32.301-22.543,45.446-17.389c7.037,2.76,12.442,7.64,16.063,14.509
				l1.072,2.028c2.66-0.847,5.418-1.276,8.243-1.276c14.854,0,26.963,11.976,27.176,26.778l0.236-0.033
				c2.54-0.376,5.16-0.758,8.029-0.191c8.262,1.639,14.36,8.637,14.832,17.016c0.476,8.614-4.845,16.291-12.928,18.668
				c-2.037,0.599-4.338,0.89-7.037,0.896C619.748,160.373,598.306,160.379,577.878,160.379z"/>
		</g>
		<g>
			<path fill="#FFFFFF" d="M374.705,150.435c-16.64,0-34.227-0.004-50.14-0.026c-2.38,0-4.511-0.274-6.334-0.814
				c-7.312-2.144-12.118-9.079-11.682-16.862c0.429-7.573,5.939-13.897,13.401-15.378c2.302-0.46,4.5-0.225,6.484,0.06
				c1.579-13.317,12.807-23.538,26.375-23.538c1.993,0,3.977,0.227,5.923,0.676l0.651-1.228c3.243-6.152,8.087-10.528,14.398-13.003
				c10.496-4.113,26.894-1.919,35.079,8.808c0.952,1.25,0.712,3.036-0.538,3.99c-1.248,0.952-3.036,0.716-3.99-0.538
				c-6.942-9.102-20.995-9.885-28.473-6.958c-5,1.959-8.851,5.445-11.439,10.358l-1.733,3.263c-0.652,1.223-2.095,1.802-3.396,1.366
				c-2.111-0.689-4.293-1.041-6.481-1.041c-11.515,0-20.882,9.367-20.882,20.877c0,0.823-0.351,1.713-0.972,2.253
				c-0.621,0.542-1.435,0.892-2.253,0.783l-2.384-0.333c-1.871-0.276-3.641-0.536-5.258-0.211
				c-4.916,0.977-8.543,5.136-8.826,10.114c-0.292,5.207,2.765,9.66,7.607,11.082c1.306,0.385,2.894,0.581,4.729,0.581
				c20.332,0.029,43.402,0.029,63.726,0.026c1.572,0,2.847,1.275,2.847,2.847c0,1.573-1.274,2.847-2.847,2.847
				C383.878,150.435,379.327,150.435,374.705,150.435z"/>
		</g>
	</g>
	<g>
		<path fill="#FFFFFF" d="M100.089,412.166v56.43c0,25.628-14.313,38.711-33.669,38.711c-19.491,0-33.802-13.083-33.802-38.711
			v-56.43c0-1.229,0.816-2.047,2.044-2.047h4.498c1.228,0,2.044,0.818,2.044,2.047v56.43c0,21.265,11.042,30.939,25.217,30.939
			c14.04,0,25.081-9.675,25.081-30.939v-56.43c0-1.229,0.818-2.047,2.044-2.047h4.5C99.271,410.119,100.089,410.938,100.089,412.166
			z"/>
		<path fill="#FFFFFF" d="M217.56,412.166v91.324c0,1.09-0.68,1.908-1.635,2.042h-7.089c-1.09,0-1.908-0.409-2.453-1.361
			l-49.07-82.329v81.648c0,1.224-0.819,2.042-2.046,2.042h-4.498c-1.226,0-2.044-0.818-2.044-2.042v-91.324
			c0-1.095,0.681-1.913,1.635-2.047h7.089c1.09,0,1.908,0.409,2.454,1.361l49.069,82.334v-81.648c0-1.229,0.819-2.047,2.044-2.047
			h4.5C216.741,410.119,217.56,410.938,217.56,412.166z"/>
		<path fill="#FFFFFF" d="M338.843,457.826c0,27.127-16.629,47.706-49.886,47.706h-20.039c-1.226,0-2.044-0.818-2.044-2.042v-91.324
			c0-1.229,0.818-2.047,2.044-2.047h20.039C322.214,410.119,338.843,430.703,338.843,457.826z M330.12,457.826
			c0-24.396-13.63-39.664-41.163-39.664h-13.495v79.327h13.495C316.489,497.489,330.12,482.227,330.12,457.826z"/>
		<path fill="#FFFFFF" d="M435.05,499.535v3.955c0,1.224-0.818,2.042-2.044,2.042h-46.209c-1.226,0-2.044-0.818-2.044-2.042v-91.324
			c0-1.229,0.818-2.047,2.044-2.047h46.072c1.228,0,2.044,0.818,2.044,2.047v3.95c0,1.228-0.816,2.046-2.044,2.046H393.34v32.439
			h37.21c1.228,0,2.046,0.818,2.046,2.046v3.95c0,1.229-0.818,2.047-2.046,2.047h-37.21v38.845h39.666
			C434.231,497.489,435.05,498.308,435.05,499.535z"/>
		<path fill="#FFFFFF" d="M539.852,505.532h-5.045c-1.094,0-1.912-0.409-2.455-1.361l-23.989-35.713H491.46v35.032
			c0,1.224-0.818,2.042-2.046,2.042h-4.498c-1.226,0-2.044-0.818-2.044-2.042v-91.324c0-1.229,0.818-2.047,2.044-2.047h24.945
			c20.311,0,31.214,12.541,31.214,29.17c0,14.448-8.314,25.899-23.989,28.626l24.127,35.166
			C542.165,504.58,541.484,505.532,539.852,505.532z M491.46,460.415h17.856c13.221,0,23.444-5.997,23.444-21.126
			c0-15.13-10.224-21.127-23.444-21.127H491.46V460.415z"/>
		<path fill="#FFFFFF" d="M635.242,412.166v3.95c0,1.228-0.818,2.046-2.042,2.046h-21.949v85.328c0,1.224-0.818,2.042-2.046,2.042
			h-4.494c-1.228,0-2.046-0.818-2.046-2.042v-85.328h-21.944c-1.229,0-2.047-0.818-2.047-2.046v-3.95
			c0-1.229,0.818-2.047,2.047-2.047H633.2C634.424,410.119,635.242,410.938,635.242,412.166z"/>
		<path fill="#FFFFFF" d="M736.639,505.532h-4.365c-1.09,0-1.908-0.409-2.317-1.633l-7.905-22.083h-44.712l-8.038,22.083
			c-0.41,1.224-1.229,1.633-2.318,1.633h-4.359c-1.504,0-2.18-0.952-1.637-2.313l33.666-91.462c0.409-1.095,1.361-1.638,2.456-1.638
			h5.044c1.086,0,2.043,0.543,2.451,1.638l33.667,91.462C738.818,504.58,738.133,505.532,736.639,505.532z M719.191,474.184
			l-19.494-54.112l-19.627,54.112H719.191z"/>
		<path fill="#FFFFFF" d="M829.978,499.535v3.955c0,1.224-0.818,2.042-2.042,2.042h-43.484c-1.224,0-2.042-0.818-2.042-2.042
			v-91.324c0-1.229,0.818-2.047,2.042-2.047h4.502c1.228,0,2.047,0.818,2.047,2.047v85.323h36.936
			C829.159,497.489,829.978,498.308,829.978,499.535z"/>
		<path fill="#FFFFFF" d="M926.877,499.535v3.955c0,1.224-0.819,2.042-2.047,2.042h-46.212c-1.224,0-2.042-0.818-2.042-2.042
			v-91.324c0-1.229,0.818-2.047,2.042-2.047h46.074c1.228,0,2.042,0.818,2.042,2.047v3.95c0,1.228-0.814,2.046-2.042,2.046h-39.525
			v32.439h37.208c1.228,0,2.046,0.818,2.046,2.046v3.95c0,1.229-0.818,2.047-2.046,2.047h-37.208v38.845h39.663
			C926.058,497.489,926.877,498.308,926.877,499.535z"/>
	</g>
	<g>
		<path fill="#FFFFFF" d="M159.956,329.289c0,5.738-3.81,9.805-10.875,9.805h-3.641v9.765c0,0.387-0.256,0.645-0.641,0.645h-4.582
			c-0.385,0-0.643-0.258-0.643-0.645V320.17c0-0.383,0.258-0.641,0.643-0.641h8.864
			C156.146,319.529,159.956,323.595,159.956,329.289z M154.346,329.289c0-3.466-2.653-4.582-5.394-4.582h-3.512v9.164h3.512
			C151.692,333.871,154.346,332.804,154.346,329.289z"/>
		<path fill="#FFFFFF" d="M196.701,349.503h-4.882c-0.343,0-0.599-0.133-0.77-0.427l-6.466-9.982h-2.482v9.765
			c0,0.387-0.258,0.645-0.643,0.645h-4.582c-0.385,0-0.643-0.258-0.643-0.645V320.17c0-0.383,0.258-0.641,0.643-0.641h8.864
			c7.064,0,10.875,4.065,10.875,9.76c0,4.324-2.182,7.709-6.292,9.119l6.806,10.321
			C197.428,349.201,197.214,349.503,196.701,349.503z M182.101,333.871h3.51c2.74,0,5.396-1.067,5.396-4.582
			c0-3.466-2.656-4.582-5.396-4.582h-3.51V333.871z"/>
		<path fill="#FFFFFF" d="M231.048,344.966v3.893c0,0.387-0.258,0.645-0.643,0.645h-15.799c-0.385,0-0.643-0.258-0.643-0.645V320.17
			c0-0.383,0.258-0.641,0.643-0.641h15.757c0.385,0,0.643,0.258,0.643,0.641v3.896c0,0.387-0.258,0.641-0.643,0.641h-10.534v6.771
			h9.891c0.385,0,0.643,0.254,0.643,0.641v3.897c0,0.382-0.258,0.641-0.643,0.641h-9.891v7.664h10.577
			C230.79,344.32,231.048,344.574,231.048,344.966z"/>
		<path fill="#FFFFFF" d="M268.007,341.193c0,5.649-5.183,8.861-10.405,8.861c-4.369,0-8.137-2.309-10.105-4.662
			c-0.213-0.303-0.213-0.604,0.042-0.898l2.569-2.785c0.258-0.302,0.6-0.347,0.943-0.044c2.055,1.797,4.068,2.909,6.68,2.909
			c2.527,0,4.538-1.37,4.538-3.506c0-5.311-14.215-3.683-14.215-13.487c0-5.223,4.411-8.395,9.335-8.395
			c3.724,0,6.764,1.584,9.162,3.981c0.3,0.303,0.3,0.561,0,0.898l-2.355,2.869c-0.256,0.343-0.556,0.388-0.899,0.129
			c-2.097-1.628-3.597-2.397-5.736-2.397c-2.398,0-3.81,1.286-3.81,3.038C253.749,332.973,268.007,330.793,268.007,341.193z"/>
		<path fill="#FFFFFF" d="M309.503,344.832c0.3,0.303,0.3,0.601,0,0.898c-2.654,2.661-6.295,4.324-10.448,4.324
			c-8.563,0-15.414-6.806-15.414-15.409c0-8.648,6.851-15.459,15.414-15.459c4.153,0,7.794,1.668,10.448,4.324
			c0.3,0.298,0.3,0.601,0,0.902l-2.825,3.034c-0.258,0.303-0.601,0.303-0.898,0.045c-1.799-1.584-4.026-2.571-6.766-2.571
			c-5.223,0-9.333,4.154-9.333,9.725c0,5.524,4.111,9.675,9.333,9.675c2.74,0,4.967-0.982,6.766-2.566
			c0.298-0.258,0.641-0.258,0.898,0.04L309.503,344.832z"/>
		<path fill="#FFFFFF" d="M346.719,349.503h-4.882c-0.342,0-0.598-0.133-0.77-0.427l-6.466-9.982h-2.482v9.765
			c0,0.387-0.258,0.645-0.643,0.645h-4.582c-0.385,0-0.643-0.258-0.643-0.645V320.17c0-0.383,0.258-0.641,0.643-0.641h8.864
			c7.064,0,10.875,4.065,10.875,9.76c0,4.324-2.182,7.709-6.292,9.119l6.806,10.321
			C347.447,349.201,347.233,349.503,346.719,349.503z M332.119,333.871h3.51c2.741,0,5.396-1.067,5.396-4.582
			c0-3.466-2.656-4.582-5.396-4.582h-3.51V333.871z"/>
		<path fill="#FFFFFF" d="M364.625,319.529h4.582c0.385,0,0.641,0.258,0.641,0.641v28.688c0,0.387-0.256,0.645-0.641,0.645h-4.582
			c-0.385,0-0.643-0.258-0.643-0.645V320.17C363.982,319.787,364.24,319.529,364.625,319.529z"/>
		<path fill="#FFFFFF" d="M407.789,329.289c0,5.738-3.81,9.805-10.874,9.805h-3.642v9.765c0,0.387-0.256,0.645-0.641,0.645h-4.582
			c-0.385,0-0.643-0.258-0.643-0.645V320.17c0-0.383,0.258-0.641,0.643-0.641h8.864
			C403.979,319.529,407.789,323.595,407.789,329.289z M402.18,329.289c0-3.466-2.653-4.582-5.394-4.582h-3.512v9.164h3.512
			C399.526,333.871,402.18,332.804,402.18,329.289z"/>
		<path fill="#FFFFFF" d="M443.335,320.17v3.896c0,0.387-0.258,0.641-0.643,0.641h-6.466v24.151c0,0.387-0.256,0.645-0.643,0.645
			h-4.58c-0.385,0-0.643-0.258-0.643-0.645v-24.151h-6.508c-0.385,0-0.643-0.254-0.643-0.641v-3.896
			c0-0.383,0.258-0.641,0.643-0.641h18.839C443.077,319.529,443.335,319.787,443.335,320.17z"/>
		<path fill="#FFFFFF" d="M460.685,319.529h4.582c0.385,0,0.643,0.258,0.643,0.641v28.688c0,0.387-0.258,0.645-0.643,0.645h-4.582
			c-0.385,0-0.643-0.258-0.643-0.645V320.17C460.042,319.787,460.3,319.529,460.685,319.529z"/>
		<path fill="#FFFFFF" d="M482.609,334.646c0-8.608,6.938-15.459,15.414-15.459c8.479,0,15.415,6.851,15.415,15.459
			c0,8.559-6.936,15.409-15.415,15.409C489.547,350.055,482.609,343.204,482.609,334.646z M507.572,334.646
			c0-5.525-4.197-9.805-9.549-9.805s-9.546,4.279-9.546,9.805c0,5.48,4.194,9.76,9.546,9.76S507.572,340.126,507.572,334.646z"/>
		<path fill="#FFFFFF" d="M554.211,320.17v28.688c0,0.387-0.258,0.645-0.641,0.645h-5.267c-0.347,0-0.601-0.133-0.774-0.427
			l-11.513-20.339v20.121c0,0.387-0.258,0.645-0.645,0.645h-4.582c-0.385,0-0.644-0.258-0.644-0.645V320.17
			c0-0.383,0.259-0.641,0.644-0.641h5.267c0.343,0,0.601,0.129,0.77,0.427l11.521,20.339V320.17c0-0.383,0.254-0.641,0.641-0.641
			h4.582C553.953,319.529,554.211,319.787,554.211,320.17z"/>
		<path fill="#FFFFFF" d="M612.906,323.07c-0.036,1.201-0.935,2.063-2.1,2.063c-2.172,0-2.136-3.372-3.897-3.372
			c-0.97,0-2.66,1.01-3.443,6.184l-0.04,0.147h3.483c0.187,0,0.338,0.11,0.303,0.338l-0.151,0.974
			c-0.036,0.151-0.111,0.263-0.303,0.263h-3.559l-1.682,11.464c-1.727,11.504-7.233,13.897-10.903,13.897
			c-2.434,0-4.044-1.272-4.009-2.847c0.036-1.197,0.863-2.02,1.984-2.02c2.211,0,1.913,3.407,3.821,3.407
			c1.01,0,2.923-1.312,3.71-7.007l2.136-15.325c0.075-0.561,0.146-1.085,0.263-1.57h-3.262c-0.187,0-0.333-0.111-0.298-0.338
			l0.151-0.975c0.036-0.151,0.111-0.262,0.299-0.262h3.519c1.948-6.406,6.597-7.79,9.929-7.79
			C611.295,320.303,612.941,321.5,612.906,323.07z"/>
		<path fill="#FFFFFF" d="M629.508,335.21c0,6.259-4.725,11.878-10.231,11.878c-3.408,0-7.189-2.322-7.189-7.603
			c0-6.37,4.907-11.727,10.076-11.727C626.02,327.759,629.508,329.854,629.508,335.21z M622.203,329.031
			c-3.301,0-5.249,6.593-5.249,12.438c0,2.883,0.979,4.307,2.549,4.307c2.958,0,5.058-6.406,5.058-12.474
			C624.561,330.455,623.587,329.031,622.203,329.031z"/>
		<path fill="#FFFFFF" d="M652.249,330.188c0,1.575-1.01,2.474-2.206,2.474c-1.798,0-1.611-1.908-2.848-1.908
			c-2.736,0-4.947,8.732-5.921,16.072h-4.497l2.286-15.022c0.115-0.677-0.187-0.938-0.636-0.938c-0.637,0-1.615,0.747-2.287,1.423
			c-0.374,0.374-0.561,0.303-0.823,0.036c-0.222-0.223-0.222-0.409,0.111-0.858c2.136-2.55,4.422-3.706,6.481-3.706
			c1.727,0,2.211,1.046,1.873,2.883l-0.823,4.457c1.237-3.781,3.523-7.38,6.629-7.38
			C651.279,327.719,652.249,328.88,652.249,330.188z"/>
		<path fill="#FFFFFF" d="M699.68,341.193c0,5.649-5.179,8.861-10.4,8.861c-4.369,0-8.142-2.309-10.107-4.662
			c-0.214-0.303-0.214-0.604,0.044-0.898l2.567-2.785c0.258-0.302,0.6-0.347,0.943-0.044c2.055,1.797,4.07,2.909,6.677,2.909
			c2.526,0,4.537-1.37,4.537-3.506c0-5.311-14.213-3.683-14.213-13.487c0-5.223,4.409-8.395,9.338-8.395
			c3.719,0,6.762,1.584,9.159,3.981c0.298,0.303,0.298,0.561,0,0.898l-2.354,2.869c-0.258,0.343-0.561,0.388-0.898,0.129
			c-2.1-1.628-3.599-2.397-5.738-2.397c-2.398,0-3.809,1.286-3.809,3.038C685.426,332.973,699.68,330.793,699.68,341.193z"/>
		<path fill="#FFFFFF" d="M732.403,344.966v3.893c0,0.387-0.259,0.645-0.646,0.645h-14.942c-0.383,0-0.641-0.258-0.641-0.645V320.17
			c0-0.383,0.258-0.641,0.641-0.641h4.582c0.382,0,0.641,0.258,0.641,0.641v24.15h9.72
			C732.145,344.32,732.403,344.574,732.403,344.966z"/>
		<path fill="#FFFFFF" d="M766.189,344.966v3.893c0,0.387-0.253,0.645-0.645,0.645h-15.797c-0.387,0-0.645-0.258-0.645-0.645V320.17
			c0-0.383,0.258-0.641,0.645-0.641h15.757c0.387,0,0.646,0.258,0.646,0.641v3.896c0,0.387-0.259,0.641-0.646,0.641h-10.53v6.771
			h9.885c0.392,0,0.646,0.254,0.646,0.641v3.897c0,0.382-0.254,0.641-0.646,0.641h-9.885v7.664h10.57
			C765.937,344.32,766.189,344.574,766.189,344.966z"/>
		<path fill="#FFFFFF" d="M800.622,344.966v3.893c0,0.387-0.254,0.645-0.646,0.645H784.18c-0.387,0-0.645-0.258-0.645-0.645V320.17
			c0-0.383,0.258-0.641,0.645-0.641h15.757c0.388,0,0.646,0.258,0.646,0.641v3.896c0,0.387-0.258,0.641-0.646,0.641h-10.529v6.771
			h9.884c0.393,0,0.646,0.254,0.646,0.641v3.897c0,0.382-0.253,0.641-0.646,0.641h-9.884v7.664h10.569
			C800.368,344.32,800.622,344.574,800.622,344.966z"/>
		<path fill="#FFFFFF" d="M838.35,329.289c0,5.738-3.808,9.805-10.872,9.805h-3.639v9.765c0,0.387-0.258,0.645-0.646,0.645h-4.582
			c-0.387,0-0.645-0.258-0.645-0.645V320.17c0-0.383,0.258-0.641,0.645-0.641h8.866C834.542,319.529,838.35,323.595,838.35,329.289z
			 M832.745,329.289c0-3.466-2.661-4.582-5.401-4.582h-3.505v9.164h3.505C830.084,333.871,832.745,332.804,832.745,329.289z"/>
	</g>
</g>
</svg>
