<?xml version="1.0" encoding="utf-8"?>
<!-- Generator: Adobe Illustrator 21.0.0, SVG Export Plug-In . SVG Version: 6.00 Build 0)  -->
<svg version="1.1" id="Layer_1" xmlns="http://www.w3.org/2000/svg" xmlns:xlink="http://www.w3.org/1999/xlink" x="0px" y="0px"
	 viewBox="0 0 2119.7 564.3" style="enable-background:new 0 0 2119.7 564.3;" xml:space="preserve">
<style type="text/css">
	.st0{fill:#FFFFFF;}
</style>
<g>
	<g>
		<g>
			<path class="st0" d="M1236.9,98.7c-0.5-9-7-16.5-15.9-18.3c-2.8-0.6-5.4-0.3-7.9,0.1c-0.7-15.2-13.4-27.4-28.7-27.4
				c-2.8,0-5.5,0.4-8.1,1.2l-0.8-1.5c-3.8-7.2-9.5-12.4-16.9-15.3c-13.8-5.4-38.6-3.3-47.8,18.3c-0.8,1.9,0.1,4.1,2,4.9
				c0.9,0.4,1.9,0.4,2.8,0c0.9-0.4,1.7-1.1,2-2c7.3-17.1,27.1-18.7,38.2-14.3c5.7,2.2,10.1,6.2,13.1,11.9l2.3,4.4
				c0.9,1.7,3,2.4,4.7,1.7c2.7-1.1,5.5-1.7,8.4-1.7c11.8,0,21.3,9.6,21.3,21.3c0,0.8-0.1,1.5-0.2,2.6c-0.1,1.1,0.3,2.3,1.1,3.1
				c0.8,0.8,2,1.2,3.1,1l3.8-0.5c2.1-0.3,4.2-0.6,6-0.3c5.5,1.1,9.6,5.8,9.9,11.4c0.3,5.9-3.1,10.9-8.5,12.5
				c-1.5,0.4-3.2,0.6-5.4,0.7c-22.3,0-51.9,0-90.5,0c0.2-2.2,0.3-4.5,0.3-6.9c0-24.7-11.9-54.2-68.5-54.2l-2-0.1c-1-0.1-2,0.3-2.8,1
				c-0.7,0.7-1.2,1.7-1.2,2.7v79.5c0,0.1,0,0.1,0,0.2c-0.6,6.6-17.4,17.1-31.4,19.7c-9.5,1.8-19.4,0-24.6-4.3
				c-2.4-2-3.6-4.4-3.6-7.1c0-8.8,11.1-17.5,25.9-20.3c8.4-1.6,17.9-0.8,22.5,1.9c1.1,0.7,2.6,0.7,3.7,0c1.2-0.7,1.9-1.9,1.9-3.2
				V18.5h2.6c0.7,3.4,2.5,9.3,6.7,15c9.1,12.3,23.9,12.3,34.7,12.3c2.1,0,3.8-1.7,3.8-3.7V14.2c0-1.3-0.7-2.6-1.9-3.2
				c-12.7-7.2-27.2-11-41.8-11c-30.8,0-57.8,16.5-72.7,41.1c-9.3-7.9-23.6-9.2-33.3-5.4c-6.7,2.6-11.8,7.3-15.2,13.8l-0.4,0.7
				c-1.9-0.4-3.8-0.6-5.7-0.6c-14,0-25.8,10.3-27.8,24.1c-1.9-0.2-4-0.4-6.2,0.1c-8,1.6-14,8.4-14.4,16.6
				c-0.5,8.4,4.7,15.8,12.6,18.2c1.9,0.6,4.2,0.9,6.7,0.9c20.9,0,44.7,0,65.6,0c2.1,0,3.7-1.7,3.7-3.7c0-2.1-1.7-3.7-3.7-3.7
				c-20.9,0-44.7,0-65.6,0c-1.8,0-3.4-0.2-4.6-0.6c-4.6-1.4-7.6-5.6-7.3-10.6c0.3-4.8,3.7-8.8,8.5-9.7c1.5-0.3,3.3-0.1,5.1,0.2
				l2.5,0.3c1,0.1,2.1-0.2,2.9-1c0.8-0.7,1.3-1.8,1.3-2.9c0-11.4,9.3-20.7,20.7-20.7c2.2,0,4.3,0.3,6.4,1c1.7,0.6,3.6-0.2,4.4-1.8
				l1.8-3.3c2.6-4.9,6.4-8.4,11.4-10.3c7-2.7,19.7-2.2,26.9,5.2c-5.4,11.2-8.5,23.8-8.5,37c0,16.9,4.9,33.1,14.3,47.1
				c0.6,0.8,1.4,1.4,2.4,1.6c1,0.2,2,0,2.8-0.6c0.8-0.6,1.4-1.4,1.6-2.4c0.2-1,0-2-0.6-2.8c-8.5-12.7-13-27.6-13-43
				c0-42.7,34.7-77.5,77.4-77.5c12.6,0,25.2,3.1,36.3,9v21.9c-9.1-0.1-19.1-1.1-25.1-9.3c-5.1-7-5.8-14.5-5.8-14.6
				c-0.2-1.9-1.8-3.4-3.7-3.4h-9.4c-2,0-3.7,1.7-3.7,3.7v101c-6.3-1.7-14.6-2-22-0.6c-18.5,3.5-31.9,15.1-31.9,27.6
				c0,5,2.2,9.4,6.3,12.8c5.1,4.3,13.1,6.7,21.9,6.7c3,0,5.9-0.3,8.8-0.8c16.2-3,35.6-14.6,37.4-25.6c0.1-0.3,0.1-0.7,0.1-1V58.7
				c39.5,0.4,59.5,16.2,59.5,46.7c0,14.6-3.9,25-13.5,35.8c-13.7,13.9-32.7,21.2-55.1,21.2c-5.7,0-11.4-0.6-16.9-1.9
				c-2-0.4-4,0.9-4.4,2.8c-0.4,2,0.8,4,2.8,4.4c6,1.3,12.3,2,18.5,2c24.5,0,45.4-8.1,60.5-23.4c0,0,0-0.1,0.1-0.1c0,0,0,0,0.1-0.1
				c7.6-8.5,12.1-16.8,14.1-26.5c10.3,0,21.4,0,32.9,0c20.1,0,40.9,0,58.7,0c2.9,0,5.3-0.3,7.5-1
				C1231.7,116.1,1237.4,107.9,1236.9,98.7z"/>
		</g>
	</g>
	<g>
		<g>
			<path class="st0" d="M421.4,303.5c0,11.5-7.6,19.7-21.8,19.7h-7.3v19.6c0,0.8-0.5,1.3-1.3,1.3h-9.2c-0.8,0-1.3-0.5-1.3-1.3v-57.6
				c0-0.8,0.5-1.3,1.3-1.3h17.8C413.7,283.9,421.4,292.1,421.4,303.5z M410.1,303.5c0-7-5.3-9.2-10.8-9.2h-7v18.4h7
				C404.8,312.7,410.1,310.6,410.1,303.5z"/>
		</g>
		<g>
			<path class="st0" d="M494.2,344.1h-9.8c-0.7,0-1.2-0.3-1.5-0.9l-13-20h-5v19.6c0,0.8-0.5,1.3-1.3,1.3h-9.2
				c-0.8,0-1.3-0.5-1.3-1.3v-57.6c0-0.8,0.5-1.3,1.3-1.3h17.8c14.2,0,21.8,8.2,21.8,19.6c0,8.7-4.4,15.5-12.6,18.3l13.7,20.7
				C495.7,343.5,495.2,344.1,494.2,344.1z M464.9,312.7h7c5.5,0,10.8-2.1,10.8-9.2c0-7-5.3-9.2-10.8-9.2h-7V312.7z"/>
		</g>
		<g>
			<path class="st0" d="M562.3,334.9v7.8c0,0.8-0.5,1.3-1.3,1.3h-31.7c-0.8,0-1.3-0.5-1.3-1.3v-57.6c0-0.8,0.5-1.3,1.3-1.3h31.6
				c0.8,0,1.3,0.5,1.3,1.3v7.8c0,0.8-0.5,1.3-1.3,1.3h-21.1v13.6h19.8c0.8,0,1.3,0.5,1.3,1.3v7.8c0,0.8-0.5,1.3-1.3,1.3h-19.8v15.4
				H561C561.7,333.7,562.3,334.2,562.3,334.9z"/>
		</g>
		<g>
			<path class="st0" d="M635.5,327.3c0,11.3-10.4,17.8-20.9,17.8c-8.8,0-16.7-4.4-20.3-9.4c-0.4-0.6-0.4-1.2,0.1-1.8l5.2-5.6
				c0.5-0.6,1.2-0.7,1.9-0.1c4.1,3.6,8.2,5.8,13.4,5.8c5.1,0,9.1-2.7,9.1-7c0-10.7-28.1-7.3-28.1-27c0-10.5,8.8-16.8,18.7-16.8
				c7.5,0,13.6,3.2,18.3,8c0.6,0.6,0.6,1.1,0.1,1.8l-4.7,5.8c-0.5,0.7-1.1,0.8-1.8,0.3c-4.2-3.3-7.2-4.8-11.5-4.8
				c-4.8,0-7.6,2.6-7.6,6.1C607.4,310.9,635.5,306.4,635.5,327.3z"/>
		</g>
		<g>
			<path class="st0" d="M717.9,334.7c0.6,0.6,0.6,1.2,0,1.8c-5.3,5.3-12.6,8.7-21,8.7c-17.2,0-30.9-13.7-30.9-30.9
				c0-17.4,13.7-31,30.9-31c8.3,0,15.6,3.4,21,8.7c0.6,0.6,0.6,1.2,0,1.8l-5.7,6.1c-0.5,0.6-1.2,0.6-1.8,0.1
				c-3.6-3.2-8.1-5.2-13.6-5.2c-10.5,0-18.7,8.3-18.7,19.5c0,11.1,8.2,19.4,18.7,19.4c5.5,0,10-2,13.6-5.2c0.6-0.5,1.3-0.5,1.8,0.1
				L717.9,334.7z"/>
		</g>
		<g>
			<path class="st0" d="M791.7,344.1h-9.8c-0.7,0-1.2-0.3-1.5-0.9l-13-20h-5v19.6c0,0.8-0.5,1.3-1.3,1.3h-9.2
				c-0.8,0-1.3-0.5-1.3-1.3v-57.6c0-0.8,0.5-1.3,1.3-1.3h17.8c14.2,0,21.8,8.2,21.8,19.6c0,8.7-4.4,15.5-12.6,18.3l13.7,20.7
				C793.2,343.5,792.7,344.1,791.7,344.1z M762.4,312.7h7c5.5,0,10.8-2.1,10.8-9.2c0-7-5.3-9.2-10.8-9.2h-7V312.7z"/>
		</g>
		<g>
			<path class="st0" d="M826.8,283.9h9.2c0.8,0,1.3,0.5,1.3,1.3v57.6c0,0.8-0.5,1.3-1.3,1.3h-9.2c-0.8,0-1.3-0.5-1.3-1.3v-57.6
				C825.5,284.4,826,283.9,826.8,283.9z"/>
		</g>
		<g>
			<path class="st0" d="M912.5,303.5c0,11.5-7.6,19.7-21.8,19.7h-7.3v19.6c0,0.8-0.5,1.3-1.3,1.3h-9.2c-0.8,0-1.3-0.5-1.3-1.3v-57.6
				c0-0.8,0.5-1.3,1.3-1.3h17.8C904.8,283.9,912.5,292.1,912.5,303.5z M901.2,303.5c0-7-5.3-9.2-10.8-9.2h-7v18.4h7
				C895.9,312.7,901.2,310.6,901.2,303.5z"/>
		</g>
		<g>
			<path class="st0" d="M982.9,285.2v7.8c0,0.8-0.5,1.3-1.3,1.3h-13v48.5c0,0.8-0.5,1.3-1.3,1.3h-9.2c-0.8,0-1.3-0.5-1.3-1.3v-48.5
				h-13.1c-0.8,0-1.3-0.5-1.3-1.3v-7.8c0-0.8,0.5-1.3,1.3-1.3h37.8C982.4,283.9,982.9,284.4,982.9,285.2z"/>
		</g>
		<g>
			<path class="st0" d="M1016.9,283.9h9.2c0.8,0,1.3,0.5,1.3,1.3v57.6c0,0.8-0.5,1.3-1.3,1.3h-9.2c-0.8,0-1.3-0.5-1.3-1.3v-57.6
				C1015.6,284.4,1016.1,283.9,1016.9,283.9z"/>
		</g>
		<g>
			<path class="st0" d="M1060,314.2c0-17.3,13.9-31,30.9-31s30.9,13.7,30.9,31c0,17.2-13.9,30.9-30.9,30.9S1060,331.4,1060,314.2z
				 M1109.9,314.2c0-11.1-8.2-19.5-19-19.5c-10.7,0-19,8.4-19,19.5c0,11,8.2,19.4,19,19.4C1101.7,333.7,1109.9,325.2,1109.9,314.2z"
				/>
		</g>
		<g>
			<path class="st0" d="M1202.8,285.2v57.6c0,0.8-0.5,1.3-1.3,1.3h-10.6c-0.7,0-1.2-0.3-1.5-0.9l-23.1-40.8v40.4
				c0,0.8-0.5,1.3-1.3,1.3h-9.2c-0.8,0-1.3-0.5-1.3-1.3v-57.6c0-0.8,0.5-1.3,1.3-1.3h10.6c0.7,0,1.2,0.3,1.5,0.9l23.1,40.8v-40.4
				c0-0.8,0.5-1.3,1.3-1.3h9.2C1202.3,283.9,1202.8,284.4,1202.8,285.2z"/>
		</g>
		<g>
			<path class="st0" d="M1311.9,293.9c0,2.3-1.7,4.1-3.9,4.1c-2.6,0-3.4-2.4-3.4-4.1c0-2.6-1.8-3-3-3c-3.1,0-4.9,2.2-7.5,11.5
				l-2.1,7.3h8.8l-1.2,3.5l-8.5-0.5l-6.9,24.7c-4,14.4-11.7,21.5-20.2,21.5c-5,0-7.9-2.6-7.9-5.6c0-2.3,1.8-4.1,4-4.1
				c2.6,0,3.5,2.5,3.4,4.4c-0.1,2.2,1.3,2.7,2.6,2.7c2.9,0,5.2-2.2,7.8-11.5l9-32.5l-8.8-0.5l0.7-2.2h8.8
				c4-14.3,11.8-21.4,20.3-21.4C1309.3,288.4,1311.9,291,1311.9,293.9z"/>
		</g>
		<g>
			<path class="st0" d="M1301.2,334.6c0-12.5,11.7-25.6,24-25.6c5.7,0,10.1,2.6,10.1,10.1c0,12.5-11.7,25.7-24,25.7
				C1305.7,344.9,1301.2,342.1,1301.2,334.6z M1326.8,317.5c0-3.9-1.6-6-4-6c-6.9,0-13.2,16.1-13.2,24.4c0,4.1,1.6,6.5,4.2,6.5
				C1321,342.4,1326.8,325.1,1326.8,317.5z"/>
		</g>
		<g>
			<path class="st0" d="M1377.6,312.9c0,3.7-3,8.2-6.7,8.2c-5.6,0,0.6-5.6-2.2-5.6c-4,0-11.6,14-17.9,28.6c-2.6,0.2-5.2,0.2-7.7,0
				l8.9-25.4c0.8-2.3,0.7-3.3,0.1-3.3c-1.2,0-4,2.7-7.2,7l-1.4-1.5c5.3-8,10.2-12,14.7-12c3.1,0,3.7,2.1,2.6,5l-6.1,15.6h1
				c8.1-15.6,14-20.6,18.3-20.6C1376.8,309,1377.6,311,1377.6,312.9z"/>
		</g>
		<g>
			<path class="st0" d="M1462.6,327.3c0,11.3-10.4,17.8-20.9,17.8c-8.8,0-16.7-4.4-20.3-9.4c-0.4-0.6-0.4-1.2,0.1-1.8l5.2-5.6
				c0.5-0.6,1.2-0.7,1.9-0.1c4.1,3.6,8.2,5.8,13.4,5.8c5.1,0,9.1-2.7,9.1-7c0-10.7-28.1-7.3-28.1-27c0-10.5,8.8-16.8,18.7-16.8
				c7.5,0,13.6,3.2,18.3,8c0.6,0.6,0.6,1.1,0.1,1.8l-4.7,5.8c-0.5,0.7-1.1,0.8-1.8,0.3c-4.2-3.3-7.2-4.8-11.5-4.8
				c-4.8,0-7.6,2.6-7.6,6.1C1434.4,310.9,1462.6,306.4,1462.6,327.3z"/>
		</g>
		<g>
			<path class="st0" d="M1527.4,334.9v7.8c0,0.8-0.5,1.3-1.3,1.3h-30c-0.8,0-1.3-0.5-1.3-1.3v-57.6c0-0.8,0.5-1.3,1.3-1.3h9.2
				c0.8,0,1.3,0.5,1.3,1.3v48.5h19.5C1526.9,333.7,1527.4,334.2,1527.4,334.9z"/>
		</g>
		<g>
			<path class="st0" d="M1594.3,334.9v7.8c0,0.8-0.5,1.3-1.3,1.3h-31.7c-0.8,0-1.3-0.5-1.3-1.3v-57.6c0-0.8,0.5-1.3,1.3-1.3h31.6
				c0.8,0,1.3,0.5,1.3,1.3v7.8c0,0.8-0.5,1.3-1.3,1.3h-21.1v13.6h19.8c0.8,0,1.3,0.5,1.3,1.3v7.8c0,0.8-0.5,1.3-1.3,1.3h-19.8v15.4
				h21.2C1593.8,333.7,1594.3,334.2,1594.3,334.9z"/>
		</g>
		<g>
			<path class="st0" d="M1662.5,334.9v7.8c0,0.8-0.5,1.3-1.3,1.3h-31.7c-0.8,0-1.3-0.5-1.3-1.3v-57.6c0-0.8,0.5-1.3,1.3-1.3h31.6
				c0.8,0,1.3,0.5,1.3,1.3v7.8c0,0.8-0.5,1.3-1.3,1.3H1640v13.6h19.8c0.8,0,1.3,0.5,1.3,1.3v7.8c0,0.8-0.5,1.3-1.3,1.3H1640v15.4
				h21.2C1662,333.7,1662.5,334.2,1662.5,334.9z"/>
		</g>
		<g>
			<path class="st0" d="M1737.3,303.5c0,11.5-7.6,19.7-21.8,19.7h-7.3v19.6c0,0.8-0.5,1.3-1.3,1.3h-9.2c-0.8,0-1.3-0.5-1.3-1.3
				v-57.6c0-0.8,0.5-1.3,1.3-1.3h17.8C1729.7,283.9,1737.3,292.1,1737.3,303.5z M1726.1,303.5c0-7-5.3-9.2-10.8-9.2h-7v18.4h7
				C1720.8,312.7,1726.1,310.6,1726.1,303.5z"/>
		</g>
	</g>
</g>
<g>
	<path class="st0" d="M38.8,447.5v33.1H82v14.6H38.8v63H20.6v-126H82v15.3H38.8z"/>
	<path class="st0" d="M134.5,558.2h-18.4v-126h18.4V558.2z"/>
	<path class="st0" d="M233.2,559.5c-32.9,0-64.4-26.3-64.4-64.3S200.2,431,233,431c15.3,0,29.5,4.7,40.7,14.4l-9.4,14.2
		c-7.4-6.7-17.8-11.2-31.1-11.2c-24.1,0-45,19.4-45,46.8c0,27.4,20.9,46.8,45.4,46.8c21.4,0,32.6-10.1,35.8-21.6h-34v-15.5h53.1
		C287.5,536.1,267.9,559.5,233.2,559.5z"/>
	<path class="st0" d="M402,432.2v126h-18.2v-63h-45.7v63h-18.2v-126h18.2v48.6h45.7v-48.6H402z"/>
	<path class="st0" d="M508.2,448.2h-26.8v110h-19.1v-110h-27v-16h72.9V448.2z"/>
	<path class="st0" d="M616.2,459.7v24H650v13.8h-33.8v48.8h-15.8V445.9H650v13.8H616.2z"/>
	<path class="st0" d="M778.1,496.1c0,30.1-25.3,51.2-50.8,51.2c-25.7,0-50.8-21.1-50.8-51.2c0-30.1,25.2-51.2,50.8-51.2
		C752.7,444.9,778.1,466,778.1,496.1z M693.6,496.1c0,20.7,15,35.7,33.7,35.7c18.7,0,33.7-15,33.7-35.7c0-20.7-15-35.7-33.7-35.7
		C708.5,460.4,693.6,475.3,693.6,496.1z"/>
	<path class="st0" d="M854,546.2l-20.6-29.8c-1.5,0.2-3.1,0.2-4.8,0.2h-4.2v29.6h-15.8V445.9h20.1c26,0,42.5,13.6,42.5,35.5
		c0,15.3-8.2,26.5-22.3,31.8l23.1,33H854z M824.5,502.9h4.2c17.3,0,26.5-7.7,26.5-21.4s-9-21.2-26.5-21.2h-4.2V502.9z"/>
	<path class="st0" d="M997.4,504.4v41.8h-15.8v-41.8l-28-58.5H970l19.5,42.5l19.4-42.5h16.5L997.4,504.4z"/>
	<path class="st0" d="M1143.2,496.1c0,30.1-25.3,51.2-50.8,51.2c-25.7,0-50.8-21.1-50.8-51.2c0-30.1,25.2-51.2,50.8-51.2
		C1117.9,444.9,1143.2,466,1143.2,496.1z M1058.7,496.1c0,20.7,15,35.7,33.7,35.7s33.7-15,33.7-35.7c0-20.7-15-35.7-33.7-35.7
		S1058.7,475.3,1058.7,496.1z"/>
	<path class="st0" d="M1238.6,509.5c0,22.3-14.1,37.9-34.2,37.9s-34-15.6-34-37.9v-63.6h16v63.4c0,15,6.8,24,18,24
		c11.4,0,18.2-9,18.2-24v-63.4h16V509.5z"/>
	<path class="st0" d="M1314.6,546.2l-20.6-29.8c-1.5,0.2-3.1,0.2-4.8,0.2h-4.2v29.6h-15.8V445.9h20.1c26,0,42.5,13.6,42.5,35.5
		c0,15.3-8.2,26.5-22.3,31.8l23.1,33H1314.6z M1285,502.9h4.2c17.3,0,26.5-7.7,26.5-21.4s-9-21.2-26.5-21.2h-4.2V502.9z"/>
	<path class="st0" d="M1516.4,495.2c0,35.1-25.7,63-67.3,63H1425v-126h24.1C1490.7,432.2,1516.4,460.1,1516.4,495.2z M1497.5,495.2
		c0-26.8-14.9-47.5-48.4-47.5h-5.9v95h5.9C1482.6,542.7,1497.5,522,1497.5,495.2z"/>
	<path class="st0" d="M1597.6,516.8l29,41.4h-20l-26.3-38c-2.3,0.2-4.5,0.2-6.8,0.2h-6.5v37.8h-18.2v-126h24.7
		c34.9,0,53.3,18.9,53.3,44.3C1626.8,495,1616.9,510.2,1597.6,516.8z M1567,504.9h6.5c23.6,0,35.1-10.8,35.1-28.4
		c0-17.8-11.5-28.3-35.1-28.3h-6.5V504.9z"/>
	<path class="st0" d="M1722.5,542.9v15.3h-63.4v-126h59.6v15.3h-41.4v33.3h41.4v14.4h-41.4v47.7H1722.5z"/>
	<path class="st0" d="M1821.2,537.7h-45.4l-7.6,20.5h-18.7l48.2-126.4c0.2-0.4,0.4-0.5,0.7-0.5c0.4,0,0.5,0.2,0.7,0.5l48.2,126.4
		h-18.7L1821.2,537.7z M1816,523.3l-17.5-47.7l-17.5,47.7H1816z"/>
	<path class="st0" d="M1991.4,430.4v127.8h-18.2v-65l0.2-14.8l-38.9,53.6c-0.2,0.2-0.4,0.4-0.7,0.4c-0.4,0-0.5-0.2-0.7-0.4
		l-39.1-53.6l0.4,14.8v65h-18.2V430.4c0-0.7,0.5-0.9,1.1-0.4l56.5,77l56.5-77C1990.9,429.5,1991.4,429.7,1991.4,430.4z"/>
	<path class="st0" d="M2060.6,543.5c11.5,0,19.6-6.5,19.6-17.6c0-8.8-3.8-15.1-15.8-22.9l-9.9-6.3c-13.1-8.3-27.4-17.8-27.4-35.8
		c0-17.1,13.3-29.9,32.4-29.9c16.9,0,29,13.3,34,29.5h-16.4c-3.4-7.4-8.6-13.5-17.3-13.5c-8.8,0-14.6,5.8-14.6,13.9
		c0,6.8,3.2,12.4,11.9,18l10.3,6.7c16.9,11,31.7,19.4,31.7,40.3c0,20.5-17.3,33.7-38.5,33.7c-21.8,0-36.5-14-39.4-32.9h16.9
		C2041.1,536.4,2048.7,543.5,2060.6,543.5z"/>
</g>
</svg>
