<?xml version="1.0" encoding="utf-8"?>
<!-- Generator: Adobe Illustrator 16.0.5, SVG Export Plug-In . SVG Version: 6.00 Build 0)  -->
<!DOCTYPE svg PUBLIC "-//W3C//DTD SVG 1.1//EN" "http://www.w3.org/Graphics/SVG/1.1/DTD/svg11.dtd">
<svg version="1.1" id="Layer_1" xmlns="http://www.w3.org/2000/svg" xmlns:xlink="http://www.w3.org/1999/xlink" x="0px" y="0px"
	 width="500px" height="500px" viewBox="0 0 500 500" enable-background="new 0 0 500 500" xml:space="preserve">
<path d="M497.633,96.39c-18.244,8.106-37.863,13.578-58.457,16.028c21.014-12.587,37.143-32.526,44.745-56.309
	c-19.671,11.665-41.438,20.14-64.616,24.714c-18.563-19.788-45.014-32.149-74.285-32.149c-56.191,0-101.758,45.567-101.758,101.775
	c0,7.98,0.89,15.743,2.618,23.195c-84.572-4.246-159.578-44.762-209.761-106.332c-8.761,15.021-13.762,32.501-13.762,51.165
	c0,35.304,17.941,66.446,45.265,84.707c-16.683-0.537-32.375-5.102-46.104-12.739c0,0.42,0,0.856,0,1.284
	c0,49.302,35.078,90.438,81.635,99.787c-8.543,2.332-17.539,3.574-26.82,3.574c-6.562,0-12.923-0.638-19.15-1.83
	c12.957,40.432,50.535,69.871,95.062,70.693c-34.826,27.273-78.698,43.553-126.38,43.553c-8.224,0-16.314-0.47-24.286-1.41
	c45.047,28.868,98.536,45.719,156.02,45.719c187.187,0,289.55-155.08,289.55-289.566c0-4.397-0.102-8.803-0.285-13.158
	C466.734,134.74,484.004,116.815,497.633,96.39z"/>
</svg>
