<?xml version="1.0" encoding="utf-8"?>
<!-- Generator: Adobe Illustrator 16.0.5, SVG Export Plug-In . SVG Version: 6.00 Build 0)  -->
<!DOCTYPE svg PUBLIC "-//W3C//DTD SVG 1.1//EN" "http://www.w3.org/Graphics/SVG/1.1/DTD/svg11.dtd">
<svg version="1.1" id="Layer_1" xmlns="http://www.w3.org/2000/svg" xmlns:xlink="http://www.w3.org/1999/xlink" x="0px" y="0px"
	 width="500px" height="500px" viewBox="0 0 500 500" enable-background="new 0 0 500 500" xml:space="preserve">
<g>
	<path d="M382.742,240.598H118.586c-41.995,0-76.025,34.073-76.025,76.054v61.103c0,41.98,34.031,76.039,76.025,76.039h264.156
		c41.98,0,76.025-34.059,76.025-76.039v-61.103C458.768,274.671,424.723,240.598,382.742,240.598z M174.073,288.179h-24.54v122.022
		h-23.734V288.179h-24.54v-20.764h72.814V288.179z M243.465,410.201h-21.047v-11.542c-3.918,4.257-7.949,7.511-12.15,9.717
		c-4.214,2.292-8.288,3.367-12.249,3.367c-4.88,0-8.501-1.542-10.99-4.696c-2.447-3.154-3.706-7.822-3.706-14.13v-88.062h21.061
		v80.82c0,2.476,0.453,4.286,1.301,5.389c0.905,1.159,2.348,1.669,4.328,1.669c1.528,0,3.494-0.722,5.87-2.206
		c2.39-1.485,4.554-3.367,6.534-5.657v-80.015h21.047V410.201z M319.857,388.446c0,7.44-1.641,13.154-4.95,17.158
		c-3.281,3.988-8.076,5.939-14.314,5.939c-4.13,0-7.808-0.735-11.003-2.277c-3.226-1.527-6.253-3.89-9.011-7.142v8.076h-21.287
		V267.415h21.287v45.982c2.857-3.182,5.87-5.644,9.011-7.312c3.238-1.684,6.463-2.504,9.73-2.504c6.676,0,11.74,2.221,15.262,6.719
		c3.535,4.483,5.275,11.061,5.275,19.688V388.446z M392.87,360.06h-40.269v19.844c0,5.545,0.679,9.393,2.064,11.542
		c1.387,2.164,3.776,3.211,7.115,3.211c3.521,0,5.94-0.919,7.341-2.73c1.357-1.823,2.093-5.812,2.093-12.022v-4.794h21.655v5.403
		c0,10.806-2.617,18.924-7.949,24.427c-5.233,5.432-13.126,8.146-23.606,8.146c-9.434,0-16.874-2.885-22.277-8.684
		c-5.402-5.743-8.146-13.734-8.146-23.89V333.2c0-9.109,2.998-16.605,8.967-22.348c5.955-5.743,13.606-8.614,23.041-8.614
		c9.633,0,17.044,2.674,22.221,7.991c5.177,5.347,7.751,12.985,7.751,22.971V360.06z"/>
	<path d="M361.992,320.668c-3.365,0-5.742,0.962-7.213,2.913c-1.485,1.854-2.178,5.021-2.178,9.435v10.665h18.613v-10.665
		c0-4.413-0.75-7.581-2.22-9.435C367.58,321.63,365.204,320.668,361.992,320.668z"/>
	<path d="M289.391,320.314c-1.499,0-2.999,0.326-4.469,1.019c-1.471,0.68-2.914,1.782-4.343,3.225v65.615
		c1.697,1.711,3.366,3.013,4.992,3.748c1.627,0.735,3.297,1.131,5.079,1.131c2.588,0,4.483-0.734,5.686-2.248
		c1.202-1.485,1.824-3.89,1.824-7.256v-54.399c0-3.578-0.722-6.266-2.206-8.104C294.412,321.233,292.22,320.314,289.391,320.314z"/>
	<polygon points="153.182,204.007 179.858,204.007 179.858,138.745 210.919,46.695 183.804,46.695 167.284,109.58 165.615,109.58 
		148.274,46.695 121.4,46.695 153.182,141.688 	"/>
	<path d="M247.072,206.934c10.778,0,19.236-2.821,25.403-8.472c6.11-5.679,9.18-13.423,9.18-23.352v-59.958
		c0-8.826-3.14-16.096-9.363-21.711c-6.295-5.586-14.328-8.409-24.145-8.409c-10.764,0-19.363,2.667-25.729,7.984
		c-6.379,5.318-9.576,12.461-9.576,21.485v60.142c0,9.873,3.126,17.68,9.335,23.536
		C228.401,204.007,236.718,206.934,247.072,206.934z M237.255,113.611c0-2.518,0.892-4.561,2.674-6.152
		c1.839-1.563,4.187-2.32,7.072-2.32c3.141,0,5.658,0.757,7.61,2.32c1.924,1.591,2.885,3.635,2.885,6.152v63.225
		c0,3.105-0.947,5.559-2.842,7.341c-1.896,1.782-4.442,2.652-7.653,2.652c-3.125,0-5.558-0.842-7.242-2.624
		c-1.669-1.74-2.504-4.187-2.504-7.369V113.611z"/>
	<path d="M317.439,205.689c4.44,0,9.01-1.258,13.733-3.698c4.752-2.483,9.307-6.103,13.648-10.835v12.851h23.706V87.968h-23.706
		v88.09c-2.206,2.532-4.652,4.582-7.298,6.23c-2.673,1.634-4.88,2.44-6.633,2.44c-2.222,0-3.848-0.608-4.81-1.86
		c-0.976-1.216-1.542-3.189-1.542-5.933V87.968h-23.663v96.986c0,6.917,1.399,12.08,4.158,15.517
		C307.821,203.936,311.923,205.689,317.439,205.689z"/>
</g>
</svg>
