<?xml version="1.0" encoding="utf-8"?>
<!-- Generator: Adobe Illustrator 16.0.5, SVG Export Plug-In . SVG Version: 6.00 Build 0)  -->
<!DOCTYPE svg PUBLIC "-//W3C//DTD SVG 1.1//EN" "http://www.w3.org/Graphics/SVG/1.1/DTD/svg11.dtd">
<svg version="1.1" id="Layer_1" xmlns="http://www.w3.org/2000/svg" xmlns:xlink="http://www.w3.org/1999/xlink" x="0px" y="0px"
	 width="500px" height="500px" viewBox="0 0 500 500" enable-background="new 0 0 500 500" xml:space="preserve">
<path d="M55.578,337.964c0.923,0,1.655-0.741,1.799-1.82l4.831-39.724l-4.819-40.639c-0.156-1.075-0.887-1.822-1.811-1.822
	c-0.911,0-1.666,0.772-1.798,1.822c0,0.012-4.244,40.639-4.244,40.639l4.244,39.724C53.912,337.197,54.667,337.964,55.578,337.964z
	 M41.337,321.115L41.337,321.115L41.337,321.115L41.337,321.115z M39.61,322.872c0.875,0,1.583-0.729,1.727-1.757l3.74-24.695
	l-3.74-25.135c-0.132-1.042-0.851-1.782-1.727-1.782c-0.899,0-1.618,0.754-1.738,1.782l-3.141,25.135l3.141,24.695
	C37.992,322.132,38.711,322.872,39.61,322.872z M74.723,248.223c-0.132-1.292-1.055-2.234-2.17-2.234
	c-1.139,0-2.062,0.941-2.17,2.234l-4.028,48.197l4.028,46.452c0.108,1.279,1.031,2.209,2.17,2.209c1.115,0,2.038-0.93,2.158-2.209
	l4.579-46.452L74.723,248.223z M89.66,346.939c1.319,0,2.41-1.117,2.53-2.611l0,0l4.327-47.896l-4.327-49.528
	c-0.12-1.5-1.211-2.611-2.53-2.611c-1.331,0-2.433,1.111-2.529,2.617l-3.812,49.522l3.812,47.896
	C87.227,345.822,88.329,346.939,89.66,346.939z M106.911,347.717c1.535,0,2.793-1.279,2.889-2.987l0,0l4.088-48.297l-4.088-45.962
	c-0.096-1.695-1.354-2.988-2.889-2.988c-1.559,0-2.817,1.305-2.913,3.013l-3.585,45.938l3.585,48.297
	C104.093,346.438,105.352,347.717,106.911,347.717z M131.39,296.444l-3.836-74.737c-0.096-1.908-1.522-3.39-3.261-3.39
	c-1.738,0-3.177,1.482-3.273,3.39l-3.368,74.737l3.368,48.311c0.096,1.883,1.535,3.377,3.273,3.377c1.739,0,3.165-1.494,3.261-3.402
	v0.025L131.39,296.444z M141.819,348.221c1.942,0,3.548-1.657,3.632-3.78v0.037l3.572-48.02l-3.572-91.838
	c-0.084-2.121-1.69-3.766-3.632-3.766c-1.955,0-3.561,1.645-3.645,3.766l-3.153,91.838l3.153,48.008
	C138.259,346.563,139.865,348.221,141.819,348.221z M159.489,192.807c-2.182,0-3.944,1.82-4.016,4.162
	c0,0.013-2.949,99.5-2.949,99.5l2.949,47.508c0.072,2.31,1.834,4.144,4.016,4.144c2.146,0,3.908-1.834,4.004-4.169v0.037
	l3.309-47.52l-3.309-99.5C163.397,194.627,161.635,192.807,159.489,192.807z M177.279,348.221c2.374,0,4.292-2.009,4.388-4.56v0.026
	l3.057-47.205l-3.057-102.859c-0.096-2.562-2.014-4.546-4.388-4.546s-4.304,1.984-4.375,4.546l-2.722,102.845l2.722,47.219
	C172.976,346.212,174.906,348.221,177.279,348.221z M195.225,348.169c2.589,0,4.675-2.184,4.748-4.945v0.025l2.805-46.767
	l-2.805-100.236c-0.072-2.775-2.158-4.934-4.748-4.934c-2.601,0-4.687,2.172-4.747,4.934l-2.506,100.236l2.506,46.767
	C190.538,345.985,192.624,348.169,195.225,348.169z M220.976,296.482l-2.554-96.583c-0.071-2.975-2.313-5.323-5.118-5.323
	s-5.059,2.349-5.119,5.336l-2.277,96.57l2.289,46.489c0.048,2.938,2.302,5.274,5.107,5.274s5.047-2.336,5.118-5.323v0.049
	L220.976,296.482z M231.525,348.347c2.96,0,5.43-2.562,5.478-5.727v0.037l2.314-46.162l-2.314-114.918
	c-0.048-3.146-2.518-5.706-5.478-5.706c-2.973,0-5.431,2.56-5.479,5.706l-2.074,114.892c0,0.077,2.074,46.178,2.074,46.178
	C226.094,345.785,228.552,348.347,231.525,348.347z M249.662,165.061c-3.177,0-5.802,2.75-5.85,6.121l-2.398,125.313l2.398,45.498
	c0.047,3.326,2.673,6.064,5.85,6.064c3.189,0,5.803-2.738,5.85-6.09v0.037l2.614-45.51l-2.614-125.32
	C255.465,167.811,252.852,165.061,249.662,165.061z M266.267,348.383c0.143,0.012,146.323,0.088,147.258,0.088
	c29.347,0,53.131-24.908,53.131-55.642s-23.784-55.642-53.131-55.642c-7.276,0-14.229,1.557-20.534,4.318
	c-4.244-50.155-44.379-89.483-93.362-89.483c-11.988,0-23.676,2.479-33.986,6.66c-4.016,1.62-5.07,3.284-5.118,6.541v176.569
	C260.571,345.207,263.089,348.044,266.267,348.383z"/>
</svg>
