<?xml version="1.0" encoding="utf-8"?>
<!-- Generator: Adobe Illustrator 16.0.5, SVG Export Plug-In . SVG Version: 6.00 Build 0)  -->
<!DOCTYPE svg PUBLIC "-//W3C//DTD SVG 1.1//EN" "http://www.w3.org/Graphics/SVG/1.1/DTD/svg11.dtd">
<svg version="1.1" id="Layer_1" xmlns="http://www.w3.org/2000/svg" xmlns:xlink="http://www.w3.org/1999/xlink" x="0px" y="0px"
	 width="500px" height="500px" viewBox="0 0 500 500" enable-background="new 0 0 500 500" xml:space="preserve">
<path d="M450.437,211.287c-65.226-0.036-130.423-0.015-195.648,0c0.015,27.042-0.028,54.084,0.015,81.127
	c37.774,0,75.535-0.015,113.296,0c-4.38,25.93-19.774,49.634-41.62,64.226c-13.732,9.211-29.507,15.211-45.774,18.07
	c-16.366,2.788-33.282,3.141-49.606-0.155c-16.606-3.324-32.465-10.225-46.282-19.986c-22.113-15.535-38.986-38.253-47.648-63.845
	c-8.873-26-8.93-54.958,0.028-80.944c6.226-18.338,16.578-35.253,30.184-49.014c16.774-17.184,38.591-29.451,62.07-34.493
	c20.127-4.289,41.353-3.479,61.042,2.486c16.747,5.084,32.197,14.26,44.832,26.338c12.774-12.712,25.479-25.493,38.253-38.226
	c6.69-6.853,13.732-13.409,20.197-20.444c-19.38-17.93-42.085-32.345-66.915-41.451c-44.677-16.444-95.043-16.789-140.015-1.226
	c-50.69,17.353-93.86,55.254-117.775,103.169c-8.324,16.507-14.423,34.113-18.057,52.24c-9.211,45.162-2.803,93.311,18.028,134.438
	c13.535,26.845,32.958,50.704,56.479,69.408c22.211,17.704,48.099,30.789,75.535,38.099c34.648,9.282,71.507,9.07,106.366,1.141
	c31.508-7.253,61.297-22.31,85.113-44.281c25.155-23.113,43.099-53.578,52.592-86.311
	C455.508,285.963,456.93,247.836,450.437,211.287z"/>
</svg>
