<?xml version="1.0" encoding="utf-8"?>
<!-- Generator: Adobe Illustrator 16.0.5, SVG Export Plug-In . SVG Version: 6.00 Build 0)  -->
<!DOCTYPE svg PUBLIC "-//W3C//DTD SVG 1.1//EN" "http://www.w3.org/Graphics/SVG/1.1/DTD/svg11.dtd">
<svg version="1.1" id="logo" xmlns="http://www.w3.org/2000/svg" xmlns:xlink="http://www.w3.org/1999/xlink" x="0px" y="0px"
	 width="612px" height="792px" viewBox="0 0 612 792" enable-background="new 0 0 612 792" xml:space="preserve">
<title>tumblr-logo-dark</title>
<path d="M461.282,709.156c-18.044,19.273-59.863,32.354-97.311,32.971h-4.11c-125.805,0-153.128-92.493-153.128-146.482V445.653
	h-49.562c-5.74,0-10.391-4.652-10.391-10.392l0,0v-70.833c0.005-7.472,4.714-14.129,11.756-16.623
	c64.583-22.749,84.839-79.112,87.837-121.953c0.812-11.448,6.799-16.997,16.738-16.997h73.869c5.739,0,10.393,4.652,10.393,10.392
	v119.963h86.472c5.73-0.003,10.383,4.628,10.401,10.358v85.124c-0.006,5.739-4.663,10.39-10.401,10.384h-86.868V583.79
	c0,34.832,22.952,44.441,37.128,44.441c13.602-0.323,26.99-4.468,33.703-7.164c4.979-1.999,9.359-3.323,13.275-2.342
	c3.649,0.911,6.045,3.494,7.661,8.206l22.92,66.948C463.523,699.245,465.125,705.053,461.282,709.156z"/>
</svg>
