<?xml version="1.0" encoding="utf-8"?>
<!-- Generator: Adobe Illustrator 24.0.0, SVG Export Plug-In . SVG Version: 6.00 Build 0)  -->
<svg version="1.1" id="Layer_1" xmlns="http://www.w3.org/2000/svg" xmlns:xlink="http://www.w3.org/1999/xlink" x="0px" y="0px"
	 viewBox="0 0 500 500" style="enable-background:new 0 0 500 500;" xml:space="preserve">
<g>
	<path d="M250.5,74.3c57.2,0,64,0.2,86.6,1.2c20.9,1,32.2,4.4,39.8,7.4c10,3.9,17.1,8.5,24.6,16c7.5,7.5,12.1,14.6,16,24.6
		c2.9,7.6,6.4,18.9,7.4,39.8c1,22.6,1.2,29.4,1.2,86.6s-0.2,64-1.2,86.6c-1,20.9-4.4,32.2-7.4,39.8c-3.9,10-8.5,17.1-16,24.6
		c-7.5,7.5-14.6,12.1-24.6,16c-7.6,2.9-18.9,6.4-39.8,7.4c-22.6,1-29.4,1.2-86.6,1.2s-64-0.2-86.6-1.2c-20.9-1-32.2-4.4-39.8-7.4
		c-10-3.9-17.1-8.5-24.6-16c-7.5-7.5-12.1-14.6-16-24.6c-2.9-7.6-6.4-18.9-7.4-39.8c-1-22.6-1.2-29.4-1.2-86.6s0.2-64,1.2-86.6
		c1-20.9,4.4-32.2,7.4-39.8c3.9-10,8.5-17.1,16-24.6c7.5-7.5,14.6-12.1,24.6-16c7.6-2.9,18.9-6.4,39.8-7.4
		C186.5,74.6,193.3,74.3,250.5,74.3 M250.5,35.7c-58.2,0-65.5,0.2-88.3,1.3c-22.8,1-38.4,4.7-52,10c-14.1,5.5-26,12.8-38,24.7
		c-11.9,11.9-19.2,23.9-24.7,38c-5.3,13.6-8.9,29.2-10,52c-1,22.9-1.3,30.2-1.3,88.3c0,58.2,0.2,65.5,1.3,88.3
		c1,22.8,4.7,38.4,10,52c5.5,14.1,12.8,26,24.7,38c11.9,11.9,23.9,19.2,38,24.7c13.6,5.3,29.2,8.9,52,10c22.9,1,30.2,1.3,88.3,1.3
		s65.5-0.2,88.3-1.3c22.8-1,38.4-4.7,52-10c14.1-5.5,26-12.8,38-24.7c11.9-11.9,19.2-23.9,24.7-38c5.3-13.6,8.9-29.2,10-52
		c1-22.9,1.3-30.2,1.3-88.3s-0.2-65.5-1.3-88.3c-1-22.8-4.7-38.4-10-52c-5.5-14.1-12.8-26-24.7-38c-11.9-11.9-23.9-19.2-38-24.7
		c-13.6-5.3-29.2-8.9-52-10C316,36,308.7,35.7,250.5,35.7L250.5,35.7z"/>
	<path d="M250.5,140c-60.8,0-110,49.3-110,110c0,60.8,49.3,110,110,110s110-49.3,110-110C360.5,189.2,311.3,140,250.5,140z
		 M250.5,321.4c-39.4,0-71.4-32-71.4-71.4c0-39.4,32-71.4,71.4-71.4s71.4,32,71.4,71.4C321.9,289.4,289.9,321.4,250.5,321.4z"/>
	<circle cx="364.9" cy="135.6" r="25.7"/>
</g>
</svg>
