<?xml version="1.0" encoding="utf-8"?>
<!-- Generator: Adobe Illustrator 16.0.5, SVG Export Plug-In . SVG Version: 6.00 Build 0)  -->
<!DOCTYPE svg PUBLIC "-//W3C//DTD SVG 1.1//EN" "http://www.w3.org/Graphics/SVG/1.1/DTD/svg11.dtd">
<svg version="1.1" id="Layer_1" xmlns="http://www.w3.org/2000/svg" xmlns:xlink="http://www.w3.org/1999/xlink" x="0px" y="0px"
	 width="500px" height="420px" viewBox="0 0 500 420" enable-background="new 0 0 500 420" xml:space="preserve">
<g>
	<g>
		<g>
			<g>
				<path fill="#FF0000" d="M45.257,262.996c0,8.768-7.898,13.184-15.359,13.184c-6.466,0-12.125-3.484-14.985-6.843
					c-0.312-0.435-0.312-0.869,0-1.304l4.291-4.788c0.373-0.437,0.871-0.562,1.429-0.125c3.172,2.612,5.907,3.979,9.514,3.979
					c3.046,0,5.658-1.554,5.658-4.291c0-6.776-20.083-4.664-20.083-18.902c0-7.958,6.715-12.561,13.866-12.561
					c5.595,0,10.009,2.301,13.554,5.781c0.498,0.438,0.498,0.811,0.125,1.307l-4.042,4.914c-0.372,0.559-0.808,0.623-1.305,0.248
					c-3.11-2.176-5.162-3.171-8.022-3.171c-3.109,0-4.726,1.739-4.726,3.667C25.172,250.934,45.257,247.826,45.257,262.996z"/>
				<path fill="#FF0000" d="M95.742,268.468c0.374,0.437,0.435,0.869,0,1.306c-3.792,3.979-9.265,6.406-15.358,6.406
					c-12.499,0-22.508-9.889-22.508-22.385c0-12.562,10.01-22.447,22.508-22.447c6.093,0,11.565,2.424,15.358,6.342
					c0.435,0.496,0.374,0.871,0,1.306l-4.788,5.224c-0.372,0.436-0.87,0.436-1.305,0.063c-2.488-2.116-5.534-3.484-9.327-3.484
					c-7.026,0-12.497,5.597-12.497,12.998c0,7.335,5.471,12.933,12.497,12.933c3.793,0,6.839-1.369,9.327-3.481
					c0.435-0.373,0.933-0.373,1.305,0.062L95.742,268.468z"/>
				<path fill="#FF0000" d="M145.354,275.37h-8.083c-0.498,0-0.87-0.187-1.059-0.747l-2.236-6.9H118.74l-2.237,6.9
					c-0.188,0.562-0.56,0.747-1.057,0.747h-8.083c-0.684,0-0.995-0.437-0.747-1.058l15.047-41.725
					c0.188-0.496,0.561-0.745,1.057-0.745h7.151c0.498,0,0.996,0.249,1.182,0.745l15.047,41.725
					C146.351,274.934,146.039,275.37,145.354,275.37z M131.303,259.576l-4.913-15.049l-4.913,15.049H131.303z"/>
				<path fill="#FF0000" d="M190.057,275.37h-8.271c-0.497,0-0.87-0.187-1.119-0.622l-9.015-14.053h-2.55v13.742
					c0,0.56-0.373,0.933-0.932,0.933h-7.772c-0.561,0-0.933-0.373-0.933-0.933v-41.66c0-0.562,0.373-0.935,0.933-0.935h13.244
					c10.446,0,16.167,5.907,16.167,14.427c0,6.217-3.046,11.067-8.829,13.183l9.699,14.799
					C191.113,274.934,190.802,275.37,190.057,275.37z M169.101,252.178h4.354c3.419,0,7.15-1.307,7.15-5.908
					c0-4.601-3.731-5.906-7.15-5.906h-4.354V252.178z"/>
				<path fill="#FF0000" d="M229.037,267.783v6.654c0,0.56-0.373,0.933-0.932,0.933h-22.136c-0.56,0-0.933-0.373-0.933-0.933v-41.66
					c0-0.562,0.373-0.935,0.933-0.935h7.772c0.559,0,0.931,0.373,0.931,0.935v34.074h13.432
					C228.664,266.854,229.037,267.225,229.037,267.783z"/>
				<path fill="#FF0000" d="M268.453,267.783v6.654c0,0.56-0.374,0.933-0.934,0.933h-23.377c-0.561,0-0.933-0.373-0.933-0.933
					v-41.66c0-0.562,0.372-0.935,0.933-0.935h23.316c0.562,0,0.935,0.373,0.935,0.935v6.654c0,0.557-0.373,0.93-0.935,0.93h-14.612
					v8.521h13.743c0.562,0,0.933,0.371,0.933,0.933v6.651c0,0.562-0.371,0.935-0.933,0.935h-13.743v9.453h14.676
					C268.079,266.854,268.453,267.225,268.453,267.783z"/>
				<path fill="#FF0000" d="M312.409,232.777v6.654c0,0.558-0.374,0.93-0.934,0.93h-9.265v34.076c0,0.56-0.373,0.933-0.934,0.933
					h-7.771c-0.561,0-0.934-0.373-0.934-0.933v-34.076h-9.264c-0.562,0-0.935-0.372-0.935-0.93v-6.654
					c0-0.562,0.373-0.935,0.935-0.935h28.166C312.035,231.844,312.409,232.217,312.409,232.777z"/>
			</g>
			<g>
				<path fill="#FF0000" d="M144.49,304.927v41.661c0,0.559-0.373,0.932-0.933,0.932h-7.771c-0.56,0-0.933-0.373-0.933-0.932
					v-21.764l-8.707,21.949c-0.187,0.498-0.621,0.744-1.119,0.744h-7.025c-0.498,0-0.934-0.246-1.12-0.744l-8.706-21.949v21.764
					c0,0.559-0.373,0.932-0.932,0.932h-7.772c-0.561,0-0.934-0.373-0.934-0.932v-41.661c0-0.559,0.373-0.935,0.934-0.935h8.767
					c0.497,0,0.933,0.188,1.119,0.622l12.188,31.713l12.125-31.713c0.187-0.435,0.622-0.622,1.12-0.622h8.767
					C144.117,303.992,144.49,304.368,144.49,304.927z"/>
				<path fill="#FF0000" d="M158.661,325.943c0-12.498,10.073-22.447,22.384-22.447c12.374,0,22.447,9.949,22.447,22.447
					c0,12.436-10.073,22.385-22.447,22.385C168.734,348.328,158.661,338.379,158.661,325.943z M193.792,325.943
					c0-7.399-5.597-13.119-12.748-13.119c-7.089,0-12.684,5.72-12.684,13.119c0,7.273,5.595,12.994,12.684,12.994
					C188.196,338.938,193.792,333.218,193.792,325.943z"/>
				<path fill="#FF0000" d="M216.418,325.943c0-12.498,10.072-22.447,22.384-22.447c12.374,0,22.447,9.949,22.447,22.447
					c0,12.436-10.073,22.385-22.447,22.385C226.49,348.328,216.418,338.379,216.418,325.943z M251.549,325.943
					c0-7.399-5.596-13.119-12.747-13.119c-7.088,0-12.685,5.72-12.685,13.119c0,7.273,5.596,12.994,12.685,12.994
					C245.953,338.938,251.549,333.218,251.549,325.943z"/>
				<path fill="#FF0000" d="M311.235,304.927v41.661c0,0.559-0.374,0.932-0.935,0.932h-8.828c-0.5,0-0.871-0.187-1.121-0.623
					l-15.295-27.422v27.113c0,0.559-0.373,0.932-0.933,0.932h-7.772c-0.561,0-0.934-0.373-0.934-0.932v-41.66
					c0-0.56,0.373-0.936,0.934-0.936h8.769c0.497,0,0.87,0.188,1.116,0.622l15.361,27.483v-27.172c0-0.559,0.371-0.935,0.932-0.935
					h7.771C310.861,303.992,311.235,304.368,311.235,304.927z"/>
			</g>
		</g>
	</g>
	<g>
		<path fill="#FF0000" d="M359.894,150.887c0.03,0.008,0.061,0.012,0.089,0.01c0.104-0.007,0.2-0.072,0.241-0.172
			c0.055-0.127,0.006-0.276-0.114-0.348c-8.814-5.264-14.473-14.47-15.132-24.625c-0.22-3.381,0.126-6.77,1.029-10.075
			c0.023-0.081,0.036-0.164-0.016-0.233c-0.051-0.069-0.102-0.106-0.186-0.11c-0.033-0.01-0.091-0.018-0.124-0.016
			c-0.361,0.023-0.794,0.205-2.099,2.142c-0.146,0.216-3.556,5.381-2.571,12.377C342.389,139.638,350.153,148.292,359.894,150.887z"
			/>
		<path fill="#FF0000" d="M273.109,62.755c-0.882-0.131-1.781-0.197-2.651-0.261c-1.901-0.139-3.703-0.271-5.378-1.04
			c-1.326-0.609-2.533-1.527-3.699-2.416c-0.829-0.632-1.687-1.285-2.577-1.817l-0.002-0.001c-0.007-0.004-0.013-0.006-0.016-0.009
			c-0.168-0.09-0.376-0.029-0.469,0.136c-0.077,0.134-0.051,0.3,0.05,0.409c0.094,0.209,0.276,1.091,0.399,1.681
			c0.17,0.816,0.269,1.288,0.357,1.478c0.629,1.328,1.815,2.74,2.951,3.515c1.24,0.846,2.98,1.331,4.772,1.331
			c0.34,0,0.675-0.017,1-0.051c0.749-0.078,1.844-0.68,2.9-1.262c0.855-0.47,1.824-1.003,2.257-1.003c0.002,0,0.002,0,0.004,0
			c0.188,0.029,0.366-0.104,0.396-0.294C273.432,62.96,273.3,62.784,273.109,62.755z"/>
		<path fill="#FF0000" d="M317.992,117.94l-0.249,0.004c-4.271,0-7.728-2.938-10.271-8.729c-0.003,0-0.004-0.001-0.004-0.003
			c-0.073-0.175-0.281-0.255-0.458-0.178c-0.152,0.067-0.233,0.229-0.203,0.387c0,0.165-0.113,0.844-0.205,1.393
			c-0.194,1.175-0.329,2.034-0.303,2.385c0.284,4.059,3.348,7.122,7.128,7.122c1.586,0,3.172-0.554,4.575-1.596
			c0.074-0.052,0.144-0.105,0.217-0.164c0.116-0.092,0.161-0.25,0.112-0.391C318.277,118.029,318.134,117.937,317.992,117.94z"/>
		<path fill="#FF0000" d="M381.57,189.098c-0.111-0.174-0.188-0.465-0.258-0.729c-0.118-0.438-0.236-0.889-0.592-1.24
			c-0.561-0.543-1.367-0.534-2.206,0.067c-0.921,0.662-1.373,1.599-1.309,2.707c0.154,2.618,3.228,5.382,4.421,6.037
			c1.509,0.835,2.989,1.24,4.523,1.243l0,0c0.312,0,0.627-0.02,0.955-0.053c0.043-0.004,4.95-1.105,5.751-2.147l0.214-0.324
			c0.046-0.071,0.064-0.156,0.053-0.244l-0.046-0.296c-0.027-0.16-0.039-0.344-0.03-0.453l0.045-0.726
			c0.008-0.095-0.024-0.189-0.091-0.258c-0.063-0.07-0.153-0.112-0.248-0.114l-1.509-0.035
			C387.178,192.455,383.671,192.385,381.57,189.098z"/>
		<path fill="#FF0000" d="M221.71,74.089c-4.519,0.345-7.826-1.436-10.601-5.66c-0.083-0.127-0.241-0.186-0.389-0.142
			c-0.147,0.042-0.25,0.176-0.251,0.33c-0.046,3.148,1.456,5.533,4.232,6.718c1.347,0.572,2.457,0.836,3.493,0.836
			c1.398,0,2.632-0.481,3.771-1.472c0.114-0.098,0.15-0.259,0.094-0.398C222.001,74.164,221.864,74.077,221.71,74.089z"/>
		<path fill="#FF0000" d="M283.964,81.119c0.417,0,0.845-0.05,1.268-0.151c0.116-0.028,0.211-0.115,0.249-0.229
			c0.038-0.114,0.014-0.241-0.062-0.333l-5.956-7.177c-0.086-0.102-0.222-0.148-0.351-0.115c-0.129,0.03-0.23,0.133-0.259,0.263
			c-0.478,2.172-0.05,4.292,1.175,5.817C281.026,80.436,282.424,81.119,283.964,81.119z"/>
		<path fill="#FF0000" d="M287.64,83.842c-0.314-0.407-0.636-0.605-0.983-0.605c-0.4,0-0.714,0.271-0.992,0.512
			c-0.229,0.196-0.444,0.383-0.663,0.408c-0.357,0.042-0.974-0.085-1.633-0.217c-0.729-0.146-1.48-0.295-2.131-0.295
			c-0.701,0-1.171,0.181-1.438,0.555c-0.485,0.672-0.396,1.185-0.237,1.495c0.652,1.277,3.53,1.341,4.101,1.341l0,0
			c0.719,0,1.316-0.073,1.637-0.201c0.094-0.037,0.211-0.079,0.346-0.127c0.776-0.276,1.95-0.694,2.278-1.491
			c0.134-0.322,0.114-0.659-0.049-1.002C287.814,84.081,287.733,83.955,287.64,83.842z"/>
		<path fill="#FF0000" d="M309.082,92.067c0.064,0,0.124-0.017,0.181-0.049c0.137-0.082,0.2-0.246,0.156-0.399
			c-1.08-3.604-2.072-4.942-3.661-4.942c-0.373,0-0.785,0.077-1.26,0.237c-0.114,0.04-0.202,0.135-0.229,0.252
			c-0.025,0.118,0.009,0.24,0.094,0.327l4.474,4.473C308.902,92.033,308.994,92.067,309.082,92.067z"/>
		<path fill="#FF0000" d="M445.276,270.432c0.34-0.693,0.727-1.478,0.234-2.273c-0.054-0.079-0.105-0.145-0.162-0.198
			c-0.229-0.214-0.551-0.322-0.96-0.322c-0.724,0-1.563,0.345-1.924,0.562c-1.746,1.053-2.885,3.191-2.975,5.582
			c-0.075,1.956,0.63,3.854,1.931,5.205c1.061,1.102,2.426,1.735,3.742,1.735c1.07,0,2.06-0.41,2.865-1.185
			c0.075-0.068,0.111-0.168,0.106-0.27c-0.004-0.102-0.055-0.197-0.137-0.258c-1.155-0.885-3.777-3.39-3.131-7.511
			C444.918,271.154,445.103,270.787,445.276,270.432z"/>
		<path fill="#FF0000" d="M427.16,233.815c0.015-0.123-0.036-0.244-0.139-0.319c-0.098-0.076-0.229-0.093-0.343-0.042l-1.135,0.476
			l-0.257,0.139c-1.1,0.744-1.486,2.944-1.49,2.962c-0.51,3.045-0.38,6.129,0.355,8.464c0.394,1.251,4.057,12.229,11.13,12.229
			c0.212,0,0.426-0.01,0.641-0.028c0.188-0.019,0.327-0.179,0.316-0.364l-0.065-1.387c-0.005-0.153-0.112-0.282-0.259-0.32
			c-0.913-0.239-4.933-6.47-6.085-8.81c-2.222-4.506-3.193-8.59-2.812-11.811L427.16,233.815z"/>
		<path fill="#FF0000" d="M396.05,171.111c0.528,0.281,1.069,0.424,1.608,0.424c0.32,0,0.646-0.052,0.964-0.154
			c0.146-0.047,0.241-0.183,0.241-0.336c-0.016-1.751-0.938-3.253-1.833-4.708c-0.719-1.17-1.464-2.378-1.722-3.703
			c-0.277-1.424-0.644-2.059-1.191-2.059c-0.203,0-0.39,0.094-0.565,0.277c-0.708,0.748-1.188,3.107-1.128,4.25
			C392.517,166.81,393.856,169.931,396.05,171.111z"/>
		<path fill="#FF0000" d="M442.285,297.207c0.382,0.214,0.759,0.383,1.121,0.494c0.033,0.011,0.068,0.016,0.103,0.016
			c0.095,0,0.188-0.04,0.254-0.112c0.093-0.098,0.121-0.241,0.072-0.364c-0.233-0.595-0.561-1.155-0.874-1.698
			c-0.406-0.702-0.79-1.366-0.988-2.093c-0.26-0.93-0.173-1.875-0.081-2.876c0.112-1.201,0.227-2.444-0.306-3.664
			c-0.039-0.09-0.113-0.159-0.21-0.19c-0.092-0.03-0.195-0.021-0.279,0.027c-1.61,0.902-2.5,2.397-2.508,4.21
			C438.578,293.346,440.131,295.974,442.285,297.207z"/>
		<path fill="#FF0000" d="M423.143,205.591c-0.348-0.187-0.679-0.365-0.85-0.516c-1.271-1.136-1.867-2.197-2.281-4.049
			c-0.041-0.177-0.069-0.347-0.098-0.513c-0.069-0.419-0.14-0.851-0.368-1.284c-0.08-0.152-0.254-0.222-0.415-0.17
			c-0.76,0.245-1.241,0.818-1.393,1.66c-0.38,2.078,1.322,5.44,2.592,6.452c0.594,0.474,2.498,1.607,3.678,1.607
			c0.655,0,1.07-0.35,1.139-0.955C425.269,206.729,424.091,206.099,423.143,205.591z"/>
		<path fill="#FF0000" d="M488.61,201.321c-0.732-12.618-2.679-25.254-5.777-37.534c-2.616-13.159-6.479-24.461-11.815-34.551
			c-1.167-2.207-2.377-4.446-3.594-6.643c-7.403-14.681-16.626-28.506-27.406-41.088c-2.378-2.86-4.548-5.343-6.629-7.593
			c-6.642-7.163-13.218-14.051-20.638-19.607c-8.146-6.105-16.739-11.696-25.54-16.617l-1.305-0.741
			c-9.79-5.554-19.999-10.287-30.344-14.064c-3.987-1.472-8.209-2.861-12.54-4.127l-1.558-0.461
			c-8.798-2.667-17.097-4.567-25.365-5.809c-9.228-1.384-18.873-2.086-28.668-2.086c-8.96,0-18.362,0.588-27.945,1.746
			c-4.776,0.575-9.682,1.459-14.989,2.701c-11.698,2.438-23.171,5.915-34.102,10.332c-2.624,1.055-5.283,2.191-7.897,3.377
			c-10.046,4.295-18.847,9.09-26.906,14.659c-0.3,0.207-0.596,0.419-0.893,0.634l-0.552,0.396
			c-6.388,4.229-12.59,8.862-18.437,13.766c-13.502,11.202-25.687,24.602-36.211,39.826c-7.752,11.262-14.437,23.493-19.87,36.355
			c-4.673,11.103-7.217,20.273-8.585,25.204c-0.519,1.964-0.911,3.641-1.226,4.987c-0.161,0.691-0.304,1.3-0.434,1.823l-0.557,2.333
			c-0.045,0.185,0.068,0.372,0.252,0.418c0.182,0.049,0.373-0.062,0.424-0.245l0.641-2.309c0.148-0.516,0.312-1.116,0.5-1.799
			c0.364-1.33,0.816-2.986,1.404-4.917c0.331-1.059,0.687-2.092,1.03-3.137c5.498-15.061,17.317-41.898,38.559-67.016
			c14.96-15.451,33.661-26.614,40.395-26.675c0,0,2.023-6.923,5.232-9.601c3.209-2.677,12.913-5.02,12.913-5.02h10.234l2.032-2.87
			c0.181-0.093,0.352-0.206,0.508-0.361c0.718-0.717,2.964-1.616,9.57-1.843c3.286,2.1,10.292,3.454,17.91,3.454
			c4.161,0,8.144-0.39,11.524-1.127c0.316,0.078,0.595,0.16,0.809,0.24c1.531,0.561,3.266,1.731,5.107,2.971
			c3.013,2.031,6.426,4.331,9.685,4.331c1.778,0,3.39-0.69,4.799-2.05c0.567-0.551,1.85-0.615,2.882-0.668l0.336-0.018
			c5.173-0.298,9.432,1.881,12.771,6.458c0.091,0.127,0.258,0.177,0.404,0.122c2.187-0.805,3.926-1.34,5.312-1.34
			c2.236,0,3.708,1.41,6.365,4.783c0.6,0.759,1.542,1.213,2.449,1.653c0.306,0.148,0.606,0.294,0.893,0.45
			c0.475,0.258,0.975,0.479,1.46,0.689c0.839,0.367,1.629,0.714,2.283,1.236c1.169,0.932,1.718,1.699,1.631,2.279
			c-0.094,0.611-0.878,1.195-2.404,1.791c-0.575,0.226-1.126,0.521-1.659,0.808c-0.234,0.126-0.47,0.253-0.707,0.374
			c-0.126,0.062-0.199,0.192-0.192,0.331c0.009,0.139,0.1,0.26,0.229,0.308c1.316,0.481,2.602,0.965,3.867,1.442
			c3.021,1.138,5.871,2.214,8.812,3.136c3.074,0.96,5.58,1.431,7.884,1.483l0.265,0.003c1.995,0,3.461-0.515,4.643-0.927
			c0.728-0.254,1.3-0.456,1.773-0.456c0.679,0,1.266,0.424,1.939,2.49c0.436,1.346,1.886,2.466,3.248,3.384
			c1.037,0.701,2.15,1.317,3.23,1.913c1.339,0.742,2.728,1.509,3.955,2.436c1.403,1.066,1.764,2.972,2.143,4.988
			c0.317,1.67,0.642,3.397,1.591,4.782c0,0.001,0.002,0.002,0.002,0.004c0.052,0.074,0.122,0.119,0.201,0.136
			c0.146,0.043,0.316-0.02,0.396-0.143c1.389,0.436,6.627,3.337,8.442,4.342c0.964,0.535,1.161,0.642,1.233,0.669
			c4.907,1.854,7.255,1.933,12.097,1.933l1.173-0.001c8.109,0,14.971,3.236,19.845,9.356c5.888,7.397,7.996,17.947,5.638,28.22
			c-0.025,0.103,0.003,0.211,0.068,0.294c0.065,0.084,0.168,0.132,0.274,0.132c0.788,0,2.948,0.802,5.038,1.575
			c2.301,0.854,4.675,1.734,5.929,1.841l-0.975,5.421c-0.012,0.067-0.002,0.135,0.021,0.198c0.244,0.574,1.513,0.666,4.817,0.766
			c1.715,0.052,4.584,0.137,4.904,0.51c0.062,0.075,0.152,0.121,0.251,0.125c2.262,0.103,2.479,0.674,3.122,2.363
			c0.482,1.273,1.143,3.015,2.986,5.383c1.049,1.349,2.4,2.487,3.707,3.587c1.873,1.576,3.644,3.064,4.093,4.862
			c0.035,0.143,0.158,0.248,0.306,0.262c5.046,0.481,4.879,2.634,4.574,6.544c-0.049,0.621-0.102,1.278-0.135,1.97
			c-0.005,0.112,0.043,0.219,0.13,0.287c0.086,0.071,0.2,0.095,0.31,0.066c1.152-0.319,2.176,1.48,3.282,3.409
			c0.867,1.517,1.767,3.087,2.937,4.12c0.13,0.116,0.322,0.118,0.454,0.007l4.437-3.678c0.696,2.196,3.38,11.416,1.291,17.237
			c-0.326,0.908-0.618,1.564-0.835,2.044c-0.331,0.743-0.499,1.117-0.298,1.447c0.204,0.334,0.611,0.356,1.507,0.405
			c0.513,0.027,1.198,0.064,2.105,0.171c0.788,2.706,1.021,4.858,0.718,6.568c-0.016,0.095,0.006,0.194,0.064,0.272
			c0.67,0.887,1.113,1.954,1.357,3.264c0.017,0.081,0.062,0.155,0.13,0.209c1.178,0.931,2.338,2.134,3.405,3.509
			c0.238,0.505,0.833,2.11,1.545,4.921c-0.201,3.271-0.732,5.807-1.541,7.327c-1.191,2.251,0.15,4.547,1.572,6.978
			c1.225,2.101,2.616,4.48,2.522,7.138c-0.019,6.589-0.775,12.975-2.255,18.976c-0.03,0.128,0.01,0.26,0.107,0.347l1.103,0.972
			c0.027,0.021,0.05,0.036,0.075,0.051c0.343,0.813,0.922,1.901,1.587,3.156c1.62,3.063,3.841,7.26,3.589,9.488
			c-0.076,0.664,0.381,1.282,0.862,1.938c0.535,0.72,1.086,1.468,1.034,2.327c-0.061,1.038-0.252,1.907-0.441,2.747
			c-0.334,1.479-0.646,2.878,0.036,4.618c0.874,2.228,0.259,4.015-0.392,5.903c-0.184,0.529-0.369,1.079-0.531,1.646l-1.896,1.537
			c-0.111,0.09-0.156,0.243-0.111,0.379l0.999,3.074c-0.535,1.787-1.354,3.93-2.152,6.004c-1.171,3.066-2.28,5.96-2.628,7.967
			c-0.499,2.895-0.66,5.268-0.805,7.359c-0.067,0.977-0.13,1.897-0.221,2.787c-26.026,44.691-68.123,68.771-88.55,78.374
			c-1.174,0.503-2.278,0.966-3.24,1.354c-1.854,0.779-3.456,1.37-4.746,1.844c-0.676,0.25-1.271,0.47-1.771,0.666l-2.246,0.844
			c-0.178,0.067-0.269,0.265-0.206,0.441c0.052,0.146,0.186,0.234,0.33,0.234c0.036,0,0.074-0.005,0.109-0.019l2.281-0.761
			c0.505-0.177,1.098-0.372,1.774-0.592c1.314-0.431,2.952-0.967,4.846-1.687c5.439-1.989,13.88-5.28,24.328-10.812
			c4.662-2.413,9.874-5.484,16.405-9.667c6.771-4.536,12.672-8.904,18.043-13.355c14.314-11.957,26.58-25.282,36.459-39.603
			c1.786-2.564,3.693-5.484,5.834-8.926c5.826-9.103,10.671-18.424,14.394-27.696c3.025-7.105,5.506-13.906,7.582-20.786
			C487.303,249.481,490.124,225.009,488.61,201.321z"/>
	</g>
</g>
</svg>
