<?xml version="1.0" encoding="utf-8"?>
<!-- Generator: Adobe Illustrator 16.0.5, SVG Export Plug-In . SVG Version: 6.00 Build 0)  -->
<!DOCTYPE svg PUBLIC "-//W3C//DTD SVG 1.1//EN" "http://www.w3.org/Graphics/SVG/1.1/DTD/svg11.dtd">
<svg version="1.1" id="Layer_1" xmlns="http://www.w3.org/2000/svg" xmlns:xlink="http://www.w3.org/1999/xlink" x="0px" y="0px"
	 width="500px" height="500px" viewBox="0 0 500 500" enable-background="new 0 0 500 500" xml:space="preserve">
<g>
	<path fill="#FF0000" d="M336.831,180.538c0.037,0.01,0.073,0.014,0.11,0.012c0.127-0.008,0.243-0.087,0.295-0.209
		c0.066-0.157,0.006-0.338-0.141-0.426c-10.806-6.453-17.74-17.738-18.551-30.186c-0.268-4.145,0.157-8.299,1.263-12.35
		c0.028-0.1,0.045-0.202-0.02-0.287c-0.062-0.084-0.123-0.13-0.227-0.134c-0.041-0.012-0.111-0.023-0.151-0.02
		c-0.443,0.029-0.975,0.251-2.574,2.625c-0.179,0.265-4.359,6.597-3.15,15.173C315.371,166.747,324.892,177.358,336.831,180.538z"/>
	<path fill="#FF0000" d="M230.448,72.501c-1.083-0.16-2.184-0.241-3.249-0.319c-2.333-0.171-4.54-0.333-6.596-1.276
		c-1.625-0.746-3.103-1.873-4.533-2.961c-1.017-0.774-2.067-1.575-3.159-2.228c-0.001,0-0.002-0.002-0.004-0.002
		c-0.007-0.004-0.013-0.007-0.02-0.011c-0.205-0.109-0.458-0.034-0.573,0.168c-0.094,0.165-0.064,0.367,0.059,0.501
		c0.116,0.257,0.34,1.336,0.49,2.061c0.208,1.001,0.33,1.58,0.44,1.812c0.77,1.628,2.224,3.359,3.616,4.31
		c1.52,1.036,3.653,1.631,5.85,1.631c0.417,0,0.828-0.021,1.226-0.063c0.919-0.096,2.26-0.833,3.556-1.546
		c1.049-0.577,2.237-1.229,2.767-1.229c0.002,0,0.002,0,0.004,0c0.233,0.035,0.451-0.127,0.486-0.361
		C230.843,72.753,230.682,72.536,230.448,72.501z"/>
	<path fill="#FF0000" d="M285.467,140.15l-0.305,0.004c-5.236,0-9.474-3.6-12.592-10.698c-0.002-0.001-0.003-0.002-0.003-0.004
		c-0.094-0.216-0.348-0.314-0.563-0.219c-0.187,0.083-0.285,0.282-0.248,0.475c0,0.202-0.141,1.036-0.252,1.708
		c-0.238,1.44-0.404,2.492-0.373,2.923c0.35,4.977,4.106,8.73,8.738,8.73c1.944,0,3.89-0.678,5.609-1.957
		c0.092-0.063,0.178-0.129,0.265-0.2c0.144-0.114,0.2-0.307,0.138-0.48C285.816,140.259,285.64,140.145,285.467,140.15z"/>
	<path fill="#FF0000" d="M363.403,227.378c-0.137-0.214-0.23-0.571-0.316-0.894c-0.145-0.536-0.291-1.089-0.726-1.521
		c-0.686-0.667-1.677-0.654-2.703,0.082c-1.13,0.812-1.685,1.96-1.604,3.32c0.188,3.209,3.956,6.595,5.42,7.4
		c1.849,1.022,3.663,1.52,5.545,1.522l0,0c0.382,0,0.769-0.023,1.169-0.063c0.055-0.007,6.068-1.356,7.052-2.632l0.26-0.396
		c0.059-0.088,0.08-0.195,0.065-0.301l-0.057-0.362c-0.032-0.195-0.046-0.422-0.035-0.556l0.055-0.89
		c0.009-0.116-0.031-0.231-0.112-0.316c-0.077-0.086-0.188-0.136-0.303-0.139l-1.852-0.042
		C370.277,231.493,365.978,231.406,363.403,227.378z"/>
	<path fill="#FF0000" d="M167.44,86.396c-5.54,0.423-9.594-1.759-12.995-6.938c-0.102-0.157-0.295-0.228-0.477-0.175
		c-0.181,0.052-0.306,0.216-0.308,0.404c-0.057,3.859,1.785,6.784,5.188,8.235c1.651,0.7,3.012,1.026,4.281,1.026
		c1.714,0,3.227-0.59,4.624-1.805c0.14-0.12,0.185-0.317,0.115-0.488C167.796,86.487,167.627,86.381,167.44,86.396z"/>
	<path fill="#FF0000" d="M243.754,95.014c0.511,0,1.033-0.062,1.552-0.186c0.144-0.035,0.26-0.141,0.306-0.281
		c0.047-0.14,0.018-0.295-0.076-0.409l-7.301-8.797c-0.105-0.125-0.272-0.182-0.43-0.142c-0.159,0.038-0.282,0.164-0.317,0.323
		c-0.586,2.663-0.061,5.262,1.442,7.13C240.152,94.176,241.866,95.014,243.754,95.014z"/>
	<path fill="#FF0000" d="M248.26,98.35c-0.387-0.499-0.782-0.741-1.206-0.741c-0.492,0-0.878,0.333-1.218,0.627
		c-0.28,0.241-0.545,0.47-0.812,0.5c-0.437,0.051-1.193-0.105-2.003-0.267c-0.892-0.178-1.812-0.362-2.61-0.362
		c-0.86,0-1.437,0.222-1.764,0.68c-0.595,0.825-0.487,1.453-0.291,1.833c0.801,1.565,4.327,1.645,5.026,1.645
		c0.001,0,0.001,0,0.001,0c0.881,0,1.612-0.089,2.004-0.247c0.115-0.046,0.261-0.098,0.425-0.156
		c0.952-0.338,2.391-0.851,2.793-1.829c0.162-0.393,0.142-0.807-0.06-1.229C248.472,98.645,248.373,98.489,248.26,98.35z"/>
	<path fill="#FF0000" d="M274.545,108.434c0.078,0,0.15-0.02,0.221-0.06c0.168-0.101,0.246-0.303,0.19-0.49
		c-1.323-4.417-2.539-6.059-4.488-6.059c-0.457,0-0.962,0.095-1.544,0.292c-0.139,0.048-0.246,0.164-0.279,0.308
		c-0.033,0.145,0.01,0.295,0.113,0.4l5.485,5.483C274.324,108.391,274.436,108.434,274.545,108.434z"/>
	<path fill="#FF0000" d="M441.496,327.08c0.418-0.849,0.892-1.811,0.287-2.788c-0.063-0.095-0.127-0.176-0.198-0.241
		c-0.28-0.264-0.674-0.396-1.176-0.396c-0.888,0-1.917,0.424-2.358,0.689c-2.139,1.29-3.537,3.913-3.646,6.842
		c-0.094,2.398,0.771,4.725,2.365,6.382c1.3,1.352,2.975,2.126,4.589,2.126c1.309,0,2.523-0.501,3.512-1.45
		c0.09-0.085,0.137-0.207,0.13-0.332c-0.006-0.124-0.066-0.24-0.167-0.315c-1.417-1.085-4.632-4.156-3.841-9.208
		C441.059,327.966,441.283,327.517,441.496,327.08z"/>
	<path fill="#FF0000" d="M419.287,282.195c0.02-0.152-0.043-0.301-0.167-0.393c-0.12-0.092-0.282-0.112-0.421-0.052l-1.391,0.584
		l-0.314,0.171c-1.349,0.911-1.823,3.607-1.827,3.629c-0.625,3.732-0.467,7.514,0.434,10.376c0.483,1.534,4.977,14.99,13.646,14.99
		c0.26,0,0.521-0.01,0.785-0.033c0.229-0.021,0.4-0.219,0.387-0.447l-0.08-1.699c-0.006-0.188-0.137-0.346-0.317-0.393
		c-1.118-0.294-6.045-7.932-7.458-10.799c-2.725-5.523-3.913-10.531-3.445-14.479L419.287,282.195z"/>
	<path fill="#FF0000" d="M381.152,205.328c0.647,0.346,1.311,0.521,1.972,0.521c0.394,0,0.792-0.063,1.183-0.189
		c0.177-0.057,0.297-0.224,0.296-0.411c-0.019-2.147-1.151-3.989-2.248-5.771c-0.882-1.434-1.794-2.915-2.111-4.538
		c-0.339-1.746-0.789-2.525-1.46-2.525c-0.248,0-0.479,0.114-0.692,0.338c-0.869,0.917-1.457,3.809-1.383,5.21
		C376.821,200.057,378.465,203.883,381.152,205.328z"/>
	<path fill="#FF0000" d="M437.83,359.902c0.468,0.264,0.93,0.469,1.373,0.605c0.041,0.014,0.084,0.02,0.126,0.02
		c0.117,0,0.232-0.048,0.312-0.137c0.113-0.121,0.146-0.295,0.087-0.447c-0.284-0.729-0.685-1.416-1.07-2.082
		c-0.497-0.861-0.968-1.675-1.212-2.564c-0.318-1.142-0.211-2.3-0.098-3.527c0.137-1.473,0.277-2.995-0.374-4.488
		c-0.05-0.11-0.142-0.196-0.257-0.234c-0.114-0.038-0.241-0.027-0.345,0.032c-1.975,1.107-3.065,2.938-3.074,5.161
		C433.285,355.17,435.19,358.393,437.83,359.902z"/>
	<path fill="#FF0000" d="M414.365,247.597c-0.428-0.229-0.832-0.446-1.043-0.633c-1.557-1.393-2.289-2.692-2.797-4.964
		c-0.049-0.216-0.084-0.425-0.117-0.629c-0.087-0.512-0.174-1.042-0.454-1.573c-0.098-0.186-0.311-0.273-0.508-0.209
		c-0.932,0.299-1.521,1.002-1.708,2.033c-0.464,2.548,1.621,6.67,3.178,7.911c0.729,0.579,3.064,1.969,4.509,1.969
		c0.805,0,1.313-0.428,1.396-1.17C416.971,248.99,415.528,248.219,414.365,247.597z"/>
	<path fill="#FF0000" d="M494.618,242.362c-0.899-15.469-3.284-30.958-7.084-46.012c-3.206-16.13-7.942-29.985-14.482-42.354
		c-1.431-2.705-2.915-5.451-4.405-8.144c-9.075-17.997-20.38-34.944-33.597-50.368c-2.914-3.505-5.574-6.549-8.127-9.307
		c-8.141-8.78-16.202-17.224-25.297-24.035c-9.984-7.484-20.521-14.337-31.308-20.369l-1.601-0.907
		c-12.001-6.81-24.516-12.611-37.196-17.241c-4.887-1.805-10.061-3.508-15.372-5.059L314.241,18
		c-10.787-3.269-20.958-5.598-31.096-7.121c-11.31-1.696-23.133-2.557-35.142-2.557c-10.983,0-22.509,0.72-34.256,2.141
		c-5.855,0.705-11.868,1.789-18.374,3.312c-14.34,2.989-28.405,7.25-41.805,12.665c-3.216,1.293-6.477,2.687-9.681,4.139
		c-12.314,5.266-23.103,11.144-32.983,17.97c-0.367,0.254-0.73,0.515-1.094,0.777l-0.676,0.486
		c-7.83,5.185-15.434,10.863-22.6,16.875c-16.551,13.732-31.487,30.157-44.389,48.82c-9.503,13.805-17.697,28.799-24.357,44.565
		c-5.728,13.611-8.847,24.853-10.525,30.897c-0.635,2.408-1.116,4.463-1.502,6.114c-0.198,0.847-0.373,1.593-0.532,2.234
		l-0.683,2.859c-0.054,0.227,0.084,0.455,0.309,0.513c0.224,0.059,0.457-0.075,0.52-0.301l0.786-2.83
		c0.182-0.631,0.384-1.368,0.612-2.206c0.447-1.63,1.001-3.66,1.721-6.027c0.405-1.299,0.842-2.564,1.262-3.846
		c6.74-18.462,21.228-51.36,47.267-82.15c18.34-18.94,41.263-32.625,49.519-32.7c0,0,2.479-8.487,6.413-11.769
		s15.829-6.154,15.829-6.154h12.546l2.491-3.517c0.221-0.114,0.431-0.252,0.621-0.443c0.881-0.878,3.634-1.981,11.732-2.26
		c4.028,2.575,12.616,4.235,21.955,4.235c5.101,0,9.982-0.478,14.127-1.381c0.386,0.096,0.728,0.195,0.991,0.293
		c1.876,0.688,4.005,2.123,6.261,3.643c3.693,2.488,7.878,5.309,11.873,5.309c2.177,0,4.155-0.845,5.882-2.514
		c0.695-0.673,2.268-0.754,3.532-0.819l0.413-0.022c6.341-0.364,11.563,2.308,15.655,7.918c0.112,0.155,0.315,0.216,0.494,0.15
		c2.682-0.987,4.815-1.644,6.514-1.644c2.742,0,4.546,1.729,7.804,5.864c0.735,0.93,1.889,1.487,3.003,2.026
		c0.373,0.181,0.742,0.36,1.094,0.551c0.58,0.315,1.193,0.585,1.789,0.845c1.028,0.45,1.997,0.875,2.799,1.515
		c1.435,1.143,2.106,2.083,1.999,2.794c-0.113,0.749-1.076,1.466-2.947,2.195c-0.705,0.277-1.38,0.638-2.032,0.989
		c-0.29,0.155-0.577,0.311-0.868,0.458c-0.154,0.078-0.244,0.237-0.234,0.407c0.01,0.17,0.121,0.318,0.278,0.377
		c1.614,0.591,3.19,1.185,4.741,1.769c3.703,1.396,7.198,2.713,10.804,3.844c3.769,1.177,6.84,1.754,9.664,1.818l0.324,0.004
		c2.446,0,4.243-0.63,5.691-1.136c0.892-0.312,1.593-0.558,2.175-0.558c0.83,0,1.552,0.519,2.375,3.052
		c0.535,1.65,2.312,3.023,3.981,4.148c1.272,0.859,2.639,1.614,3.96,2.344c1.644,0.91,3.346,1.851,4.852,2.987
		c1.721,1.308,2.161,3.643,2.626,6.115c0.387,2.047,0.786,4.164,1.949,5.862c0,0.001,0.002,0.003,0.002,0.005
		c0.064,0.091,0.15,0.146,0.248,0.167c0.179,0.054,0.387-0.023,0.484-0.174c1.704,0.535,8.123,4.091,10.35,5.323
		c1.182,0.655,1.421,0.786,1.511,0.819c6.018,2.273,8.895,2.369,14.829,2.369l1.438,0c9.94,0,18.352,3.966,24.326,11.468
		c7.218,9.068,9.803,22,6.911,34.593c-0.03,0.127,0.004,0.26,0.084,0.362c0.081,0.102,0.207,0.162,0.338,0.162
		c0.965,0,3.613,0.982,6.175,1.931c2.82,1.046,5.73,2.125,7.269,2.255l-1.196,6.647c-0.014,0.082-0.004,0.166,0.025,0.242
		c0.299,0.704,1.854,0.817,5.905,0.939c2.103,0.063,5.621,0.169,6.012,0.626c0.077,0.092,0.188,0.147,0.309,0.152
		c2.773,0.126,3.037,0.825,3.825,2.897c0.592,1.56,1.4,3.695,3.662,6.598c1.286,1.654,2.944,3.049,4.545,4.398
		c2.296,1.932,4.464,3.756,5.017,5.96c0.043,0.175,0.193,0.304,0.374,0.321c6.188,0.59,5.98,3.229,5.607,8.021
		c-0.061,0.761-0.124,1.567-0.164,2.415c-0.007,0.137,0.052,0.269,0.159,0.354c0.104,0.086,0.245,0.115,0.378,0.08
		c1.415-0.391,2.668,1.815,4.023,4.18c1.065,1.859,2.166,3.783,3.6,5.051c0.159,0.141,0.395,0.144,0.559,0.009l5.438-4.51
		c0.854,2.693,4.144,13.995,1.583,21.131c-0.398,1.114-0.759,1.919-1.022,2.506c-0.408,0.913-0.611,1.37-0.367,1.773
		c0.25,0.409,0.75,0.437,1.848,0.497c0.629,0.034,1.47,0.08,2.579,0.209c0.966,3.319,1.253,5.957,0.882,8.053
		c-0.021,0.117,0.008,0.237,0.079,0.333c0.82,1.087,1.365,2.396,1.666,4.001c0.02,0.101,0.074,0.19,0.156,0.256
		c1.444,1.141,2.865,2.615,4.175,4.301c0.294,0.62,1.022,2.587,1.895,6.033c-0.247,4.01-0.899,7.116-1.889,8.984
		c-1.46,2.757,0.185,5.57,1.926,8.55c1.503,2.575,3.207,5.492,3.093,8.751c-0.022,8.077-0.951,15.904-2.765,23.261
		c-0.037,0.155,0.012,0.319,0.133,0.425l1.353,1.192c0.031,0.023,0.061,0.044,0.091,0.061c0.421,0.997,1.129,2.33,1.945,3.87
		c1.985,3.756,4.709,8.898,4.397,11.631c-0.092,0.814,0.468,1.572,1.061,2.375c0.654,0.883,1.329,1.799,1.266,2.854
		c-0.074,1.271-0.311,2.336-0.541,3.366c-0.408,1.813-0.791,3.528,0.045,5.661c1.071,2.731,0.318,4.921-0.48,7.237
		c-0.224,0.649-0.454,1.323-0.65,2.019l-2.323,1.884c-0.137,0.112-0.19,0.298-0.137,0.465l1.226,3.768
		c-0.658,2.19-1.663,4.817-2.64,7.36c-1.437,3.758-2.797,7.307-3.222,9.766c-0.611,3.549-0.809,6.458-0.985,9.022
		c-0.082,1.197-0.16,2.323-0.273,3.417c-31.903,54.783-83.507,84.303-108.548,96.074c-1.438,0.616-2.792,1.184-3.972,1.658
		c-2.271,0.955-4.235,1.68-5.816,2.261c-0.829,0.306-1.558,0.575-2.17,0.815l-2.753,1.034c-0.219,0.082-0.331,0.324-0.253,0.543
		c0.062,0.177,0.227,0.286,0.403,0.286c0.044,0,0.091-0.006,0.134-0.022l2.797-0.934c0.618-0.218,1.347-0.456,2.176-0.727
		c1.61-0.527,3.616-1.184,5.939-2.065c6.669-2.44,17.015-6.473,29.822-13.256c5.715-2.958,12.104-6.721,20.11-11.851
		c8.299-5.56,15.532-10.914,22.119-16.371c17.548-14.657,32.582-30.991,44.69-48.546c2.19-3.143,4.53-6.725,7.153-10.942
		c7.14-11.157,13.079-22.583,17.644-33.95c3.709-8.711,6.75-17.047,9.296-25.48C493.015,301.399,496.473,271.398,494.618,242.362z"
		/>
</g>
</svg>
