<?xml version="1.0" encoding="utf-8"?>
<!-- Generator: Adobe Illustrator 22.0.0, SVG Export Plug-In . SVG Version: 6.00 Build 0)  -->
<svg version="1.1" id="Layer_1" xmlns="http://www.w3.org/2000/svg" xmlns:xlink="http://www.w3.org/1999/xlink" x="0px" y="0px"
	 viewBox="0 0 1105 706.5" style="enable-background:new 0 0 1105 706.5;" xml:space="preserve">
<style type="text/css">
	.st0{fill:#5E2C8B;}
</style>
<g>
	<g>
		<g>
			<path class="st0" d="M549.8,234.5c-6.8,0-13.6-0.7-20.2-2.2c-1.7-0.4-2.8-2.1-2.5-3.9c0.4-1.7,2.1-2.8,3.9-2.5
				c6.2,1.4,12.5,2.1,18.8,2.1c24.9,0,46.2-8.2,61.4-23.6c1.3-1.3,3.3-1.3,4.6,0c1.3,1.3,1.3,3.3,0,4.6
				C599.3,225.6,576.5,234.5,549.8,234.5z"/>
		</g>
		<g>
			<path class="st0" d="M508.8,226.3c-9.3,0-18-2.5-23.6-7.2c-4.3-3.6-6.6-8.2-6.6-13.4c0-13.4,14.5-25.8,34.4-29.5
				c8.7-1.6,18.2-1.2,25,0.9V64.7c0-1.8,1.4-3.2,3.2-3.2h10.4c1.7,0,3.1,1.3,3.2,3c0,0.1,0.8,8.6,6.6,16.5
				c7.1,9.6,18.9,10.5,29.2,10.6V65.9c-12.5-6.7-26.6-10.3-40.8-10.3c-47.5,0-86.2,38.7-86.2,86.2c0,17.1,5,33.6,14.5,47.8
				c1,1.5,0.6,3.5-0.9,4.5c-1.5,1-3.5,0.6-4.5-0.9c-10.2-15.2-15.6-33-15.6-51.4c0-51.1,41.6-92.6,92.6-92.6c16,0,31.8,4.2,45.7,12
				c1,0.6,1.6,1.7,1.6,2.8v30.7c0,1.8-1.5,3.2-3.4,3.2c-11.8,0-27.8-0.1-37.5-13.2c-4.7-6.4-6.6-13.1-7.3-16.8h-4.4V182
				c0,1.2-0.6,2.2-1.6,2.8c-1,0.6-2.2,0.6-3.2,0c-5.2-3.1-15.9-4-25.4-2.2c-16.6,3.1-29.2,13.1-29.2,23.2c0,3.3,1.4,6.1,4.3,8.5
				c5.9,4.9,17.1,6.9,27.8,4.9c16.1-3,34.6-14.8,35.3-22.5c0-0.1,0-0.2,0-0.2v-87.6c0-0.9,0.4-1.7,1-2.3c0.6-0.6,1.5-1,2.4-0.9
				l2.2,0.1h0c61.6,0,74.6,32,74.6,58.8c0,18.1-4.9,31-16.9,44.4c-1.2,1.3-3.2,1.4-4.6,0.3c-1.3-1.2-1.4-3.2-0.3-4.6
				c10.8-12.1,15.2-23.7,15.2-40.1c0-34.5-22.6-52.1-67.3-52.3v84.8c0,0.3-0.1,0.6-0.1,0.9c-1.8,11.6-23,24.3-40.5,27.6
				C515.1,226,511.9,226.3,508.8,226.3z"/>
		</g>
		<g>
			<path class="st0" d="M668.3,179.3c-13.1,0-26,0-37.7,0c-1.8,0-3.2-1.4-3.2-3.2c0-1.8,1.4-3.2,3.2-3.2l0,0c31.4,0,71,0,102.4,0
				c2.4,0,4.5-0.3,6.2-0.8c6.4-1.9,10.4-7.8,10-14.6c-0.4-6.6-5.2-12-11.6-13.3c-2.1-0.4-4.5-0.1-6.9,0.3l-4.2,0.6
				c-1,0.1-2-0.2-2.7-0.9c-0.7-0.7-1.1-1.7-1-2.7c0.1-1,0.2-1.9,0.2-2.9c0-13.4-10.9-24.4-24.4-24.4c-3.3,0-6.6,0.7-9.6,2
				c-1.5,0.7-3.3,0-4.1-1.5l-2.5-4.8c-3.4-6.4-8.4-10.9-14.9-13.5c-12.6-4.9-35-3.2-43.2,16.2c-0.7,1.6-2.6,2.4-4.2,1.7
				c-1.6-0.7-2.4-2.6-1.7-4.2c9.9-23.3,36.6-25.6,51.5-19.7c8,3.1,14.1,8.7,18.2,16.5l1.2,2.3c3-1,6.2-1.4,9.3-1.4
				c16.8,0,30.6,13.6,30.8,30.4l0.2,0c2.9-0.4,5.9-0.9,9.1-0.2c9.4,1.9,16.3,9.8,16.8,19.3c0.5,9.8-5.5,18.5-14.7,21.2
				c-2.3,0.7-4.9,1-8,1C713.3,179.3,690.4,179.3,668.3,179.3z"/>
		</g>
		<g>
			<path class="st0" d="M449.8,168c-23.1,0-49.2,0-72.3,0c-2.7,0-5.1-0.3-7.2-0.9c-8.3-2.4-13.8-10.3-13.3-19.1
				c0.5-8.6,6.7-15.8,15.2-17.4c2.6-0.5,5.1-0.3,7.4,0.1c1.8-15.1,14.5-26.7,29.9-26.7c2.3,0,4.5,0.3,6.7,0.8l0.7-1.4
				c3.7-7,9.2-11.9,16.3-14.8c11.9-4.7,30.5-2.2,39.8,10c1.1,1.4,0.8,3.4-0.6,4.5c-1.4,1.1-3.4,0.8-4.5-0.6
				c-7.9-10.3-23.8-11.2-32.3-7.9c-5.7,2.2-10,6.2-13,11.8l-2,3.7c-0.7,1.4-2.4,2.1-3.9,1.6c-2.4-0.8-4.9-1.2-7.4-1.2
				c-13.1,0-23.7,10.6-23.7,23.7c0,0.9-0.4,1.9-1.1,2.6c-0.7,0.6-1.6,1-2.5,0.9l-2.7-0.4c-2.1-0.3-4.1-0.6-6-0.2
				c-5.6,1.1-9.7,5.8-10,11.5c-0.3,5.9,3.1,11,8.6,12.6c1.5,0.4,3.3,0.7,5.4,0.7c23.1,0,49.2,0,72.3,0c1.8,0,3.2,1.4,3.2,3.2
				C453,166.6,451.5,168,449.8,168z"/>
		</g>
	</g>
	<g>
		<g>
			<path class="st0" d="M138.9,402.8c0,8.6-6.1,14.4-16.1,14.4h-8v15.6h-7v-44.7h15C132.8,388.1,138.9,394.2,138.9,402.8z
				 M131.9,402.8c0-5.6-3.8-8.2-9.4-8.2h-7.7v16.5h7.7C128.1,411.1,131.9,408.4,131.9,402.8z"/>
			<path class="st0" d="M182.8,432.8l-10.5-15.6h-0.8h-8v15.6h-7v-44.7h15c10,0,16.1,6.1,16.1,14.7c0,6.3-3.3,11-8.9,13.1l11.6,16.8
				H182.8z M163.5,411.1h7.7c5.7,0,9.4-2.7,9.4-8.2c0-5.6-3.8-8.2-9.4-8.2h-7.7V411.1z"/>
			<path class="st0" d="M234.8,426.3v6.5h-27.2v-44.7h26.7v6.5h-19.7v12.5h15.1v6.4h-15.1v12.8H234.8z"/>
			<path class="st0" d="M281.6,396.8l-5.2,3c-2.2-3.8-4.9-6.1-9.2-6.1c-4.2,0-7.1,2.3-7.1,5.9c0,2.9,2,4.8,6.3,6.4l3.1,1.1
				c8.9,3.3,13.4,6.7,13.4,13.2c0,8.4-7.8,13-15.4,13c-7.8,0-14.1-4.6-16-11l5.5-2.8c1.6,4.1,5,7.4,10.5,7.4c4.5,0,8.2-2.4,8.2-6.8
				c0-3.9-2.9-5.3-8-7.2l-3.1-1.1c-6.7-2.5-11.4-5.9-11.4-12.5c0-7.3,6.3-11.9,14-11.9C274.7,387.5,279.4,392.2,281.6,396.8z"/>
			<path class="st0" d="M322.1,433.4c-12,0-23-9.4-23-23c0-13.5,11-23,23-23c5.7,0,10.9,1.9,14.9,5.3l-4.3,4.8
				c-2.8-2.2-6.4-3.5-10.1-3.5c-8.7,0-16.2,6.8-16.2,16.3s7.5,16.3,16.2,16.3c3.8,0,7.5-1.4,10.3-3.7l4.3,4.9
				C333.1,431.5,327.9,433.4,322.1,433.4z"/>
			<path class="st0" d="M381,432.8l-10.5-15.6h-0.8h-8v15.6h-7v-44.7h15c10,0,16.1,6.1,16.1,14.7c0,6.3-3.3,11-8.9,13.1l11.6,16.8
				H381z M361.7,411.1h7.7c5.7,0,9.4-2.7,9.4-8.2c0-5.6-3.8-8.2-9.4-8.2h-7.7V411.1z"/>
			<path class="st0" d="M412.1,432.8h-7v-44.7h7V432.8z"/>
			<path class="st0" d="M462.4,402.8c0,8.6-6.1,14.4-16.1,14.4h-8v15.6h-7v-44.7h15C456.3,388.1,462.4,394.2,462.4,402.8z
				 M455.4,402.8c0-5.6-3.8-8.2-9.4-8.2h-7.7v16.5h7.7C451.6,411.1,455.4,408.4,455.4,402.8z"/>
			<path class="st0" d="M509.5,394.6h-11.9v38.2h-7v-38.2h-11.9v-6.5h30.8V394.6z"/>
			<path class="st0" d="M534.3,432.8h-7v-44.7h7V432.8z"/>
			<path class="st0" d="M598.5,410.4c0,13.7-11,23-23,23s-23-9.3-23-23s11-23,23-23S598.5,396.8,598.5,410.4z M591.2,410.4
				c0-9.7-7.5-16.3-15.7-16.3c-8.2,0-15.7,6.6-15.7,16.3c0,9.7,7.5,16.3,15.7,16.3C583.7,426.8,591.2,420.1,591.2,410.4z"/>
			<path class="st0" d="M616.7,388.1h7l23.2,33.1h0.4v-33.1h7v44.7h-7l-23.2-33.1h-0.4v33.1h-7V388.1z"/>
		</g>
	</g>
	<g>
		<path class="st0" d="M126.4,644.7c-28.6,0-59.5-23-59.5-60.1c0-37.1,30.9-60.1,59.5-60.1c12.6,0,25.6,4.4,36,12.1l8.1-9.2
			c-12.7-10.1-28.4-15.5-45.3-15.5c-18.1,0-36.3,7.4-49.9,20.3C60.9,546,53,564.6,53,584.6c0,20.1,7.9,38.6,22.3,52.3
			c13.5,12.9,31.7,20.3,49.9,20.3c17.3,0,33.1-5.5,45.9-15.9l-8.2-9.2C152.4,640.2,139.2,644.7,126.4,644.7z"/>
		<polygon class="st0" points="247.8,590.2 300,590.2 300,578.3 247.8,578.3 247.8,526.4 314.9,526.4 314.9,514.1 234.4,514.1 
			234.4,655.2 316.7,655.2 316.7,642.9 247.8,642.9 		"/>
		<polygon class="st0" points="394.7,514.1 381.3,514.1 381.3,655.2 459.7,655.2 459.7,642.9 394.7,642.9 		"/>
		<polygon class="st0" points="536.6,590.2 588.8,590.2 588.8,578.3 536.6,578.3 536.6,526.4 603.7,526.4 603.7,514.1 523.3,514.1 
			523.3,655.2 605.6,655.2 605.6,642.9 536.6,642.9 		"/>
		<path class="st0" d="M718.9,578.1l-10.6-3.9c-16.7-6.4-24.4-14.8-24.4-26.4c0-14.4,11.5-24.1,28.6-24.1c14.5,0,25.7,7.1,33.3,21.3
			l9.8-5.3c-6-13.5-20.4-27.7-43.1-27.7c-11.7,0-22.3,3.5-30,9.7c-7.9,6.5-12,15.3-12,25.6c0,17.1,10.3,28.4,34.6,37.8l11,4.1
			c18.1,6.8,30,12.4,30,28.3c0,16.4-13.5,27.8-32.8,27.8c-17.2,0-31.5-9.8-37.5-25.8l-10.5,5c5.9,19.3,25.6,32.7,48,32.7
			c22.7,0,46.7-13.8,46.7-39.5C760.1,597.4,745.6,588.1,718.9,578.1z"/>
		<polygon class="st0" points="852.7,655.2 866,655.2 866,526.4 906.2,526.4 906.2,514.1 812.3,514.1 812.3,526.4 852.7,526.4 		"/>
		<polygon class="st0" points="983.1,590.2 1035.3,590.2 1035.3,578.3 983.1,578.3 983.1,526.4 1050.2,526.4 1050.2,514.1 
			969.7,514.1 969.7,655.2 1052,655.2 1052,642.9 983.1,642.9 		"/>
	</g>
	<g>
		<path class="st0" d="M720.9,392.8c0,1.5-1.1,2.8-2.6,2.8c-1.6,0-2.3-1.5-2.3-2.7c0-2-1.5-2-1.9-2c-1.7,0-2.4,1.1-4.1,7l-1.3,4.6
			h5.5l-0.8,2.4l-5.2-0.3l-4.2,15.2c-2.4,9-7.9,13.4-13.2,13.4c-3.1,0-5.2-1.5-5.2-3.7c0-1.6,1.2-2.8,2.7-2.8c1.7,0,2.3,1.5,2.3,3
			c-0.1,1.5,1,1.7,1.7,1.7c1.4,0,2.8-1.1,4.4-7l5.5-20.1l-5.7-0.3l0.5-1.5h5.7c2.4-8.9,7.9-13.3,13.2-13.3
			C718.9,389.1,720.9,390.8,720.9,392.8z"/>
		<path class="st0" d="M714.2,417.8c0-7.6,7.2-15.8,15.3-15.8c3.8,0,6.8,1.6,6.8,6.5c0,7.7-7.3,15.9-15.4,15.9
			C717.3,424.4,714.2,422.6,714.2,417.8z M730.2,406.8c0-2.2-0.8-3.3-1.9-3.3c-3.9,0-7.8,10.5-7.8,15.7c0,2.6,1,3.6,2.3,3.6
			C726.9,422.9,730.2,411.2,730.2,406.8z"/>
		<path class="st0" d="M763.6,404.7c0,2.4-2,5.7-4.5,5.7c-4,0,0.2-3.6-1.6-3.6c-2.5,0-6.9,8.1-11,17.1c-1.9,0.1-3.8,0.1-5.7,0
			l5.5-15.6c0.4-1.4,0.4-1.9,0-1.9c-0.8,0-2.7,1.7-4.5,4.2l-1-1c3.3-4.9,6.8-7.5,10.1-7.5c2.3,0,2.5,1.5,1.8,3.4l-3.8,9.5h0.6
			c5.5-9.8,9-12.9,11.7-12.9C763.1,402.1,763.6,403.5,763.6,404.7z"/>
	</g>
	<g>
		<path class="st0" d="M820.3,396.8l-5.2,3c-2.2-3.8-4.9-6.1-9.2-6.1c-4.2,0-7.1,2.3-7.1,5.9c0,2.9,2,4.8,6.3,6.4l3.1,1.1
			c8.9,3.3,13.4,6.7,13.4,13.2c0,8.4-7.8,13-15.4,13c-7.8,0-14.1-4.6-16-11l5.5-2.8c1.6,4.1,5,7.4,10.5,7.4c4.5,0,8.2-2.4,8.2-6.8
			c0-3.9-2.9-5.3-8-7.2l-3.1-1.1c-6.7-2.5-11.4-5.9-11.4-12.5c0-7.3,6.3-11.9,14-11.9C813.4,387.5,818.2,392.2,820.3,396.8z"/>
		<path class="st0" d="M865,426.3v6.5h-26v-44.7h7v38.2H865z"/>
		<path class="st0" d="M910.1,426.3v6.5h-27.2v-44.7h26.7v6.5h-19.7v12.5H905v6.4h-15.1v12.8H910.1z"/>
		<path class="st0" d="M955.6,426.3v6.5h-27.2v-44.7H955v6.5h-19.7v12.5h15.1v6.4h-15.1v12.8H955.6z"/>
		<path class="st0" d="M1004.9,402.8c0,8.6-6.1,14.4-16.1,14.4h-8v15.6h-7v-44.7h15C998.8,388.1,1004.9,394.2,1004.9,402.8z
			 M997.9,402.8c0-5.6-3.8-8.2-9.4-8.2h-7.7v16.5h7.7C994.1,411.1,997.9,408.4,997.9,402.8z"/>
	</g>
</g>
</svg>
